<svg width="56" height="56" viewBox="0 0 56 56" fill="none" xmlns="http://www.w3.org/2000/svg">
<circle cx="28" cy="28" r="27.5" stroke="#A47087"/>
<g clip-path="url(#clip0_1_178)">
<path d="M29.3629 5.46768C29.8168 5.78349 30.3818 6.23641 30.5491 6.77917C30.5625 6.85565 30.5625 6.85565 30.5762 6.93367C30.6641 6.92109 30.6641 6.92109 30.7537 6.90826C31.8841 6.77231 32.8492 7.01028 33.7688 7.70271C34.3207 8.2073 34.6483 8.86676 34.8829 9.57039C34.9679 9.579 35.0528 9.58761 35.1404 9.59648C36.682 9.77354 36.682 9.77354 37.2577 10.2423C37.4649 10.3841 37.5406 10.383 37.7833 10.3394C37.8413 10.3299 37.8993 10.3204 37.9591 10.3106C38.1335 10.2761 38.1335 10.2761 38.2962 10.2268C39.3547 9.99754 40.3701 10.248 41.2649 10.8197C41.9982 11.3682 42.5431 12.1737 42.7052 13.086C42.7135 13.3001 42.7166 13.5144 42.7161 13.7287C42.7164 13.8408 42.7166 13.9528 42.7168 14.0683C42.7052 14.4044 42.7052 14.4044 42.6406 14.7329C42.5868 15.018 42.5868 15.018 42.747 15.2057C42.8405 15.2822 42.8405 15.2822 42.9359 15.3602C43.6064 15.9687 43.9675 16.77 44.0486 17.6714C44.0776 18.7479 43.7917 19.6925 43.0471 20.4922C42.5708 20.9356 42.0943 21.2291 41.4747 21.4356C41.3619 21.6842 41.3619 21.6842 41.2714 21.9952C41.2333 22.1148 41.1951 22.2344 41.1569 22.3541C41.1371 22.4174 41.1174 22.4808 41.097 22.5461C39.6918 27.0277 37.4295 32.4802 33.3009 35.1466C33.2428 35.1466 33.1848 35.1466 33.1251 35.1466C33.1611 35.1967 33.1971 35.2469 33.2342 35.2987C33.7363 36.0542 33.9256 36.8109 33.7568 37.7119C33.5369 38.4552 33.0025 38.9957 32.3341 39.3653C32.3496 39.4238 32.3651 39.4823 32.3811 39.5425C32.4517 39.8093 32.522 40.0762 32.5922 40.3431C32.6167 40.4351 32.6411 40.5271 32.6662 40.6219C32.7015 40.7561 32.7015 40.7561 32.7375 40.8931C32.7591 40.975 32.7807 41.0569 32.803 41.1414C32.9853 41.9076 33.1503 42.9749 32.8175 43.7214C32.4982 44.2339 32.0242 44.6213 31.4552 44.8145C31.2188 44.8357 31.2188 44.8357 30.9615 44.8345C30.8648 44.8345 30.768 44.8345 30.6683 44.8344C30.5131 44.8331 30.5131 44.8331 30.3548 44.8317C30.2481 44.8314 30.1415 44.8312 30.0315 44.8309C29.6913 44.83 29.351 44.8278 29.0107 44.8255C28.7798 44.8246 28.5489 44.8238 28.318 44.8231C27.7524 44.8212 27.1868 44.8182 26.6212 44.8145C26.6159 44.8835 26.6106 44.9525 26.6052 45.0236C26.549 45.7316 26.4537 46.4223 26.33 47.1217C26.3124 47.2284 26.2948 47.3351 26.2766 47.4451C26.1164 48.356 25.8719 49.06 25.127 49.6485C24.2935 50.2323 23.1469 50.0633 22.1937 49.9012C21.4393 49.7536 20.8351 49.4757 20.3425 48.874C19.8881 48.197 19.7514 47.4977 19.8938 46.6983C19.935 46.5086 19.9797 46.3206 20.0294 46.1329C19.9605 46.1614 19.9605 46.1614 19.8903 46.1906C19.1899 46.4555 18.4596 46.5363 17.7579 46.23C16.682 45.6784 15.5133 45.0652 15.1075 43.8477C15.0316 42.9529 15.0596 42.2287 15.6585 41.5181C15.8775 41.27 16.1041 41.0299 16.3335 40.7915C16.5705 40.5443 16.7887 40.2866 17.0026 40.019C17.2815 39.6716 17.5727 39.3397 17.8761 39.0137C18.2531 38.6086 18.6059 38.1895 18.9531 37.7582C19.1582 37.5102 19.3719 37.273 19.5899 37.0362C19.9488 36.6463 20.2853 36.2437 20.6165 35.8301C20.7634 35.6543 20.9104 35.488 21.0683 35.3227C21.1299 35.2578 21.1299 35.2578 21.1927 35.1915C21.3087 35.0705 21.426 34.9507 21.5434 34.831C21.7182 34.6379 21.7182 34.6379 21.6976 34.4318C21.5954 34.2372 21.4935 34.1447 21.3203 34.0095C18.2604 31.4351 16.4348 27.3559 15.0855 23.6823C15.0647 23.6259 15.0439 23.5694 15.0225 23.5112C14.8337 22.9962 14.6576 22.5078 14.5802 21.963C14.5221 21.9575 14.4641 21.9521 14.4044 21.9465C14.0338 21.8461 13.7524 21.6508 13.4376 21.4356C13.3614 21.3849 13.2853 21.3341 13.2069 21.2818C12.5048 20.6167 12.1171 19.7345 12.0777 18.7745C12.067 17.9155 12.21 17.2113 12.729 16.5083C12.8688 16.2989 12.9185 16.2153 12.8793 15.9637C12.8289 15.8173 12.7763 15.6716 12.7217 15.5267C12.4627 14.6881 12.6497 13.8087 13.0173 13.0369C13.5157 12.1275 14.2435 11.5776 15.2036 11.2297C15.546 11.1341 15.8647 11.1511 16.2172 11.1683C17.0926 11.2344 17.0926 11.2344 17.8541 10.8668C17.937 10.7828 17.937 10.7828 18.0216 10.6972C18.5555 10.17 19.3269 10.0852 20.0404 10.0867C20.1475 10.0865 20.2547 10.0863 20.3651 10.0861C20.6446 10.0977 20.6446 10.0977 20.9083 10.1856C20.9119 10.1167 20.9155 10.0479 20.9193 9.97688C21.074 9.3358 21.4643 8.76731 21.963 8.33992C22.0124 8.29675 22.0618 8.25359 22.1127 8.20911C22.6001 7.80985 23.189 7.51337 23.8221 7.43869C24.0834 7.33315 24.1233 7.13043 24.2316 6.87874C24.6244 6.05207 25.1816 5.57206 26.0059 5.17585C27.0949 4.7942 28.3726 4.87209 29.3629 5.46768ZM26.112 7.37209C25.8119 7.7848 25.61 8.17314 25.6544 8.69148C25.7767 9.26483 25.7767 9.26483 26.1817 9.65828C26.2243 9.62859 26.2669 9.59891 26.3108 9.56833C27.209 8.97068 28.0416 8.99606 29.0821 9.13093C29.2059 8.49154 29.1707 8.02275 28.8184 7.46101C28.4117 7.05755 28.0178 6.83555 27.4396 6.81831C26.8844 6.82801 26.4895 6.9535 26.112 7.37209ZM31.0157 8.77937C30.986 8.87579 30.9563 8.9722 30.9257 9.07154C30.8862 9.19937 30.8466 9.3272 30.807 9.45503C30.7875 9.51842 30.768 9.58181 30.7479 9.64712C30.6448 9.97933 30.5359 10.3042 30.4005 10.6251C30.4969 10.6537 30.5933 10.6824 30.6926 10.7119C30.8205 10.7507 30.9483 10.7895 31.0761 10.8283C31.1395 10.8471 31.2029 10.8658 31.2682 10.8851C31.6269 10.9949 31.9318 11.1168 32.2462 11.3282C32.3796 11.1943 32.5111 11.0584 32.6417 10.9217C32.7151 10.8462 32.7885 10.7708 32.8641 10.6931C33.07 10.4031 33.0857 10.2702 33.0372 9.92195C32.8581 9.44581 32.5316 9.10262 32.0941 8.8525C31.7392 8.72241 31.3874 8.7451 31.0157 8.77937ZM23.1934 9.74617C22.8072 10.1646 22.6131 10.5554 22.6263 11.1363C22.7062 11.5216 22.9571 11.8135 23.1934 12.1192C23.2533 12.2044 23.3131 12.2896 23.3747 12.3774C23.672 12.6938 23.9536 12.745 24.3745 12.7619C24.7393 12.754 24.9927 12.6724 25.3028 12.4708C25.4677 12.1409 25.3923 11.764 25.3028 11.4161C25.0945 11.2118 25.0945 11.2118 24.9296 11.1054C24.433 10.6906 24.122 9.99146 23.8966 9.3946C23.6009 9.3946 23.4253 9.57455 23.1934 9.74617ZM26.901 10.5066C26.5068 10.9559 26.4137 11.3042 26.4207 11.8991C26.4688 12.3274 26.7062 12.5627 27.0112 12.8443C27.4497 13.1438 27.7507 13.2079 28.2725 13.1334C28.7605 13.0144 29.0679 12.6963 29.3458 12.295C29.4803 11.8915 29.5164 11.471 29.3705 11.0642C29.1303 10.6157 28.8399 10.354 28.3735 10.1636C27.8313 10.0252 27.3177 10.1276 26.901 10.5066ZM33.9216 12.1192C33.5525 12.6561 33.4952 13.0521 33.5645 13.7012C33.7084 14.2663 34.0406 14.5367 34.5207 14.8411C34.7121 14.9509 34.7121 14.9509 34.9708 14.9317C35.093 14.7994 35.093 14.7994 35.196 14.6296C35.3937 14.3248 35.3937 14.3248 35.586 14.2286C35.6044 14.0424 35.6137 13.8553 35.619 13.6683C35.6522 13.0651 35.7909 12.5835 36.0255 12.0313C36.0545 11.9443 36.0835 11.8573 36.1134 11.7677C35.3252 11.3893 34.5313 11.4085 33.9216 12.1192ZM18.6482 12.5594C18.3504 13.0272 18.2415 13.4032 18.2716 13.9649C18.3296 14.0519 18.3876 14.1389 18.4473 14.2286C18.4971 14.2147 18.5468 14.2007 18.5981 14.1864C19.3929 14.0057 20.1542 14.1917 20.8424 14.6135C20.9852 14.7145 21.1232 14.8224 21.2598 14.9317C21.67 14.3363 21.7867 13.893 21.6993 13.1739C21.4808 12.6264 21.1084 12.2444 20.5677 12.0094C19.8501 11.8371 19.1448 11.9779 18.6482 12.5594ZM37.6954 12.7344C37.5275 13.021 37.4317 13.2768 37.4317 13.6134C37.5146 13.6343 37.5146 13.6343 37.5993 13.6556C38.3901 13.8712 38.9717 14.1697 39.4532 14.8438C39.5462 15.017 39.6359 15.1921 39.7169 15.3712C40.2342 15.1546 40.5282 14.8615 40.799 14.3714C40.9528 13.7844 40.8768 13.3543 40.5958 12.8223C40.32 12.3663 39.9481 12.1876 39.4532 12.0313C38.7382 11.945 38.1947 12.2351 37.6954 12.7344ZM30.4005 12.5587C30.357 12.662 30.3135 12.7653 30.2686 12.8718C29.9466 13.5057 29.4789 13.849 28.8184 14.0913C28.6725 14.1387 28.5261 14.185 28.379 14.2286C28.389 14.7894 28.5219 15.0613 28.8905 15.48C29.1433 15.6843 29.3947 15.7806 29.6973 15.8985C29.7262 15.8199 29.7551 15.7413 29.7849 15.6602C30.1655 14.6928 30.6541 13.8948 31.6309 13.4376C31.3901 13.0299 31.1794 12.7902 30.752 12.5587C30.636 12.5587 30.52 12.5587 30.4005 12.5587ZM15.0471 13.4541C14.7266 13.8439 14.5215 14.2036 14.4483 14.7065C14.5322 15.3044 14.7144 15.7446 15.2009 16.1182C15.5416 16.3537 15.8089 16.4373 16.2226 16.4313C16.2936 16.4306 16.3647 16.4298 16.4379 16.4289C16.4919 16.4279 16.546 16.4269 16.6016 16.4259C16.8577 15.7178 16.883 15.2973 16.6013 14.6018C16.4404 14.0773 16.487 13.5419 16.5137 12.9981C15.9131 12.9845 15.5221 13.0674 15.0471 13.4541ZM25.9125 14.1846C25.8318 14.2254 25.751 14.2662 25.6678 14.3082C25.6053 14.34 25.5429 14.3717 25.4786 14.4044C25.5334 14.7036 25.6483 14.8946 25.8247 15.1405C26.0335 15.4434 26.1773 15.7141 26.2696 16.0743C26.4436 16.0163 26.6177 15.9583 26.7969 15.8985C26.7283 15.4761 26.6512 15.0556 26.5717 14.6351C26.5595 14.5704 26.5474 14.5057 26.5348 14.439C26.5051 14.281 26.4752 14.123 26.4454 13.9649C26.2606 13.9649 26.0725 14.1036 25.9125 14.1846ZM35.9925 15.2998C35.7611 15.7003 35.6409 16.0811 35.7007 16.5464C35.8426 17.0658 36.1115 17.3586 36.5528 17.6563C36.9037 17.8317 37.314 17.7885 37.6954 17.7442C38.1188 17.5944 38.3973 17.3599 38.6182 16.9697C38.7692 16.6089 38.8367 16.284 38.7501 15.8985C38.5511 15.4517 38.2824 15.1144 37.8712 14.8438C37.1417 14.6007 36.5438 14.792 35.9925 15.2998ZM18.0134 15.8216C17.6987 16.2603 17.7001 16.5983 17.7442 17.129C17.899 17.5847 18.1448 17.8202 18.5352 18.0958C18.9582 18.2981 19.32 18.3067 19.7657 18.1837C20.2288 17.9343 20.5638 17.6349 20.7325 17.129C20.7821 16.6287 20.7595 16.2369 20.4688 15.8106C20.0901 15.4484 19.7752 15.2318 19.2548 15.1624C18.7484 15.222 18.3443 15.4314 18.0134 15.8216ZM32.1583 15.1954C32.0894 15.2751 32.0205 15.3549 31.9495 15.4371C31.9108 15.482 31.872 15.5268 31.8321 15.573C31.5643 15.9269 31.5224 16.1788 31.5321 16.6236C31.5336 16.7183 31.5352 16.813 31.5369 16.9106C31.5389 16.9827 31.5409 17.0547 31.543 17.129C31.647 17.1333 31.7511 17.1376 31.8582 17.142C32.5896 17.1755 33.2896 17.2198 34.004 17.3927C34.265 17.0881 34.265 17.0881 34.5313 16.7774C34.4517 16.7475 34.372 16.7176 34.29 16.6868C33.5773 16.4032 33.0506 16.1058 32.5098 15.5469C32.4448 15.4819 32.3798 15.4169 32.3128 15.3499C32.2618 15.2989 32.2108 15.2479 32.1583 15.1954ZM23.1934 15.3712C23.1498 15.4295 23.1062 15.4879 23.0613 15.548C22.7016 16.0154 22.3758 16.3766 21.8751 16.6895C22.0388 16.8601 22.2035 17.0225 22.388 17.1705C22.8724 17.5631 23.1656 17.9864 23.4571 18.5352C23.8931 18.4775 24.0447 18.3398 24.3099 18.0041C24.5907 17.5804 24.6363 17.1695 24.5526 16.6816C24.4193 16.1337 24.1053 15.755 23.6329 15.4591C23.4012 15.3983 23.4012 15.3983 23.1934 15.3712ZM40.788 16.8543C40.4363 17.0389 40.0968 17.1878 39.7169 17.3048C39.7964 17.5103 39.8767 17.7127 39.9764 17.9094C40.2586 18.4812 40.346 19.0478 40.42 19.6778C41.0219 19.6563 41.4076 19.5062 41.8262 19.0626C42.1128 18.619 42.2534 18.1858 42.1778 17.6563C42.0411 17.2588 41.8995 16.8698 41.5626 16.6016C41.2371 16.6016 41.0752 16.7033 40.788 16.8543ZM26.7969 18.1837C26.5051 18.5589 26.4306 18.946 26.4454 19.4141C26.5319 19.7733 26.6795 20.073 26.8848 20.3809C27.2213 20.3156 27.414 20.1733 27.6779 19.9638C28.1537 19.662 28.6155 19.6548 29.159 19.6668C29.2623 19.668 29.2623 19.668 29.3677 19.6692C29.5362 19.6713 29.7047 19.6744 29.8731 19.6778C29.9577 19.1233 29.9766 18.7702 29.6973 18.2716C29.3512 17.8721 28.9895 17.5116 28.4432 17.4627C27.7072 17.4491 27.293 17.6205 26.7969 18.1837ZM14.1407 17.7442C13.907 18.1971 13.8746 18.6774 14.0223 19.1635C14.2236 19.6146 14.5226 19.9308 14.9317 20.2052C15.1969 20.2935 15.3901 20.3104 15.6678 20.315C15.7912 20.3184 15.7912 20.3184 15.9171 20.3219C16.2167 20.2866 16.3705 20.2243 16.6016 20.0294C16.6865 19.7718 16.6865 19.7718 16.706 19.4801C16.7514 19.0555 16.8278 18.6781 16.9532 18.2716C16.8566 18.2693 16.7599 18.267 16.6603 18.2647C15.9564 18.2405 15.3424 18.195 14.6856 17.9145C14.5046 17.8374 14.3324 17.7863 14.1407 17.7442ZM35.4981 18.4473C35.4039 18.7893 35.4127 18.9554 35.5695 19.2713C35.8258 19.8565 35.8737 20.4532 35.9376 21.0841C36.411 21.2964 36.8311 21.3302 37.3438 21.2598C37.8793 21.0446 38.2355 20.6825 38.5084 20.1777C38.6377 19.7144 38.6289 19.3657 38.4425 18.9307C38.399 18.8582 38.3554 18.7857 38.3106 18.711C38.2383 18.7257 38.1661 18.7405 38.0916 18.7556C37.1966 18.9189 36.5675 18.8797 35.7618 18.4473C35.6748 18.4473 35.5878 18.4473 35.4981 18.4473ZM21.1719 18.5352C21.1314 18.5702 21.0908 18.6052 21.049 18.6413C20.2664 19.277 19.5249 19.3722 18.5352 19.3262C18.3577 19.6812 18.3914 20.1134 18.5074 20.486C18.7526 21.0211 19.1283 21.3846 19.6778 21.6114C20.2178 21.6742 20.7207 21.6759 21.1719 21.3477C21.6031 20.9174 21.8838 20.5962 21.9025 19.9689C21.8979 19.5173 21.7956 19.1626 21.5235 18.7989C21.3428 18.6496 21.3428 18.6496 21.1719 18.5352ZM31.8946 18.9747C31.7542 19.4498 31.6331 19.9285 31.5152 20.4098C31.4723 20.5777 31.4221 20.7438 31.3673 20.9083C31.4947 20.9292 31.4947 20.9292 31.6248 20.9505C32.2685 21.0634 32.8193 21.1939 33.3929 21.5245C33.5717 21.6312 33.5717 21.6312 33.8282 21.6114C34.039 21.0968 34.1788 20.6611 34.004 20.1173C33.7799 19.6289 33.5161 19.3229 33.0372 19.0626C32.7722 18.9742 32.5941 18.9656 32.3176 18.9692C32.2384 18.97 32.1592 18.9708 32.0776 18.9716C31.987 18.9731 31.987 18.9731 31.8946 18.9747ZM24.2481 20.7325C23.8834 21.1175 23.746 21.472 23.6878 21.9959C23.7451 22.55 23.9602 22.9426 24.3745 23.3143C24.8196 23.6621 25.1711 23.77 25.7423 23.7208C26.107 23.5931 26.3597 23.4746 26.6212 23.1934C26.5256 22.5665 26.5256 22.5665 26.1824 22.0533C26.0453 21.9556 25.907 21.8596 25.7677 21.7652C25.313 21.4176 25.0617 20.9068 24.8634 20.3809C24.6447 20.3809 24.4128 20.613 24.2481 20.7325ZM27.8242 21.2818C27.5949 21.6554 27.4586 21.99 27.5361 22.4323C27.6922 22.9449 27.8992 23.3114 28.3515 23.6164C28.8259 23.7865 29.236 23.7867 29.7138 23.6274C30.1066 23.3568 30.424 23.0351 30.5762 22.5782C30.6086 22.0846 30.5972 21.7701 30.3126 21.3477C29.9361 20.9756 29.6508 20.7208 29.1096 20.705C28.543 20.7116 28.2331 20.884 27.8242 21.2818ZM16.6016 22.0509C16.7341 22.8058 17.019 23.4889 17.3103 24.1932C17.3359 24.2557 17.3616 24.3183 17.3881 24.3827C18.4664 27.0058 19.7527 29.4689 21.6114 31.6309C21.6709 31.7012 21.7304 31.7714 21.7916 31.8438C22.1702 32.2819 22.5662 32.6745 23.0177 33.0372C23.0859 33.0921 23.1541 33.1471 23.2243 33.2037C23.7061 33.5726 24.2125 33.8863 24.7425 34.1798C24.8033 34.2148 24.8642 34.2498 24.9268 34.2858C25.3938 34.5357 25.7417 34.5645 26.2696 34.5313C26.1569 34.1692 26.0213 33.8415 25.8453 33.5058C25.7724 33.3662 25.7724 33.3662 25.698 33.2238C25.6473 33.1278 25.5967 33.0317 25.5445 32.9328C25.4952 32.8385 25.4459 32.7442 25.3952 32.647C25.1019 32.087 25.1019 32.087 24.7966 31.5336C24.7484 31.4485 24.7002 31.3633 24.6505 31.2756C24.6069 31.2002 24.5633 31.1249 24.5184 31.0472C24.3735 30.7293 24.3984 30.5506 24.5118 30.2247C24.7759 30.0926 24.9222 30.0851 25.2149 30.1368C25.6398 30.6333 25.9076 31.3116 26.2037 31.8891C26.3042 32.0839 26.4048 32.2787 26.5055 32.4734C26.5546 32.5687 26.6038 32.664 26.6544 32.7621C26.8553 33.1498 27.0591 33.5359 27.2639 33.9216C27.3138 34.0156 27.3138 34.0156 27.3647 34.1116C27.4391 34.2515 27.5135 34.3914 27.588 34.5313C27.791 34.5313 27.994 34.5313 28.2032 34.5313C28.3227 34.3082 28.4416 34.0847 28.5603 33.8612C28.5985 33.7895 28.6368 33.7178 28.6762 33.6439C28.9339 33.1564 29.1783 32.6642 29.4155 32.1665C29.5025 31.9858 29.5897 31.8052 29.677 31.6245C29.7344 31.5044 29.7912 31.384 29.8473 31.2632C29.9269 31.0917 30.0089 30.9215 30.0915 30.7513C30.1618 30.6023 30.1618 30.6023 30.2335 30.4502C30.4005 30.2247 30.4005 30.2247 30.6704 30.1399C30.9706 30.1363 31.0666 30.1959 31.2794 30.4005C31.24 30.9775 31.0835 31.39 30.8176 31.8998C30.7807 31.9727 30.7437 32.0456 30.7057 32.1208C30.5884 32.3517 30.4698 32.5818 30.351 32.812C30.2323 33.0444 30.1138 33.2771 29.9955 33.5098C29.9219 33.6541 29.8481 33.7983 29.7739 33.9423C29.6004 34.224 29.6004 34.224 29.5216 34.5313C30.5489 34.688 31.3971 34.1871 32.2108 33.6105C32.495 33.4001 32.7667 33.1772 33.0372 32.9493C33.1485 32.8565 33.1485 32.8565 33.2621 32.7618C34.6843 31.5386 35.7283 29.9113 36.6407 28.2911C36.6789 28.2238 36.717 28.1566 36.7563 28.0873C37.6013 26.5845 38.2509 24.9853 38.8599 23.3747C38.8863 23.3061 38.9127 23.2375 38.9398 23.1668C39.0853 22.7905 39.0853 22.7905 39.0137 22.4024C38.9488 22.4384 38.8839 22.4745 38.817 22.5116C37.7078 23.1007 36.8913 23.1415 35.6739 22.9298C35.5739 22.9131 35.4738 22.8965 35.3707 22.8793C35.2968 22.8669 35.2228 22.8546 35.1466 22.8419C34.9928 22.9702 34.9928 22.9702 34.8829 23.1934C34.8853 23.3844 34.9134 23.566 34.9406 23.7551C35.0899 24.8884 34.884 25.9437 34.1842 26.8653C33.5194 27.5858 32.6723 27.971 31.7006 28.0415C31.184 28.0602 30.7543 27.9737 30.2638 27.8128C30.0289 27.7592 29.918 27.7584 29.6973 27.8516C29.5604 27.9765 29.5604 27.9765 29.4337 28.1318C28.837 28.7595 28.0166 29.0859 27.1628 29.1078C26.1082 29.1173 25.2494 28.8979 24.4239 28.2032C23.7134 27.4814 23.4388 26.6105 23.4241 25.6214C23.428 25.1253 23.428 25.1253 23.2466 24.6759C23.0914 24.5532 23.0914 24.5532 22.9222 24.4545C22.4758 24.1402 22.2395 23.5145 22.0509 23.0177C21.9367 23.0557 21.9367 23.0557 21.8201 23.0946C21.7223 23.1272 21.6244 23.1598 21.5235 23.1934C21.4438 23.2242 21.364 23.2551 21.2818 23.2868C20.1962 23.6 19.2344 23.412 18.2444 22.8975C17.7778 22.6144 17.5158 22.3286 17.2169 21.8751C16.9843 21.8751 16.8143 21.9613 16.6016 22.0509ZM31.6309 22.8419C31.601 22.9109 31.5711 22.9799 31.5403 23.051C31.1927 23.8043 30.8229 24.3412 30.0489 24.6821C29.9184 24.7283 29.9184 24.7283 29.7852 24.7755C29.8433 25.2694 30.0761 25.5977 30.4279 25.94C30.8715 26.2289 31.2923 26.3156 31.8084 26.2287C32.3619 26.0792 32.7137 25.7649 33.0372 25.3028C33.2689 24.8393 33.2357 24.3916 33.1251 23.8966C32.911 23.4764 32.6345 23.1962 32.2462 22.9298C31.9186 22.8524 31.9186 22.8524 31.6309 22.8419ZM27.4232 24.9348C26.7496 25.3881 26.0109 25.5012 25.2149 25.5665C25.1582 26.0199 25.2824 26.2717 25.5287 26.6363C25.8122 26.9988 26.1855 27.2863 26.6473 27.3538C27.3164 27.3645 27.7646 27.2227 28.2526 26.7585C28.3967 26.5467 28.3967 26.5467 28.3735 26.33C28.2854 26.0775 28.1916 25.8278 28.0947 25.5785C27.9901 25.2865 27.9217 24.9896 27.8516 24.6876C27.6876 24.6876 27.5504 24.8417 27.4232 24.9348ZM24.2048 36.5831C24.0488 36.8116 24.0488 36.8116 24.0778 37.0911C24.1657 37.3607 24.1949 37.4479 24.4239 37.6075C24.6598 37.6335 24.8753 37.6435 25.1112 37.6416C25.2161 37.6423 25.2161 37.6423 25.3231 37.643C25.5544 37.6442 25.7856 37.6434 26.0169 37.6425C26.1775 37.6427 26.3381 37.6429 26.4986 37.6433C26.8353 37.6437 27.1719 37.6431 27.5085 37.6419C27.9403 37.6404 28.3721 37.6412 28.8039 37.6428C29.1355 37.6438 29.4671 37.6435 29.7987 37.6428C29.9579 37.6426 30.1172 37.6428 30.2764 37.6434C30.4988 37.6441 30.7212 37.6431 30.9436 37.6416C31.0096 37.6421 31.0757 37.6427 31.1437 37.6432C31.4934 37.639 31.4934 37.639 31.8033 37.4924C31.9614 37.235 31.9305 37.0209 31.8946 36.7286C31.7652 36.5228 31.7652 36.5228 31.543 36.377C31.302 36.3419 31.0961 36.328 30.8552 36.3301C30.7518 36.329 30.7518 36.329 30.6463 36.3278C30.4188 36.3259 30.1913 36.3264 29.9638 36.3272C29.8055 36.3268 29.6472 36.3262 29.489 36.3256C29.1574 36.3247 28.8258 36.3251 28.4942 36.3264C28.0692 36.3279 27.6442 36.3258 27.2192 36.3227C26.8924 36.3208 26.5657 36.3209 26.2389 36.3216C26.0822 36.3217 25.9255 36.3211 25.7688 36.3198C25.5497 36.3183 25.3308 36.3196 25.1117 36.3216C25.047 36.3205 24.9822 36.3195 24.9155 36.3184C24.5852 36.3246 24.4491 36.3534 24.2048 36.5831ZM22.1387 36.9923C21.9889 37.1456 21.8434 37.3006 21.6993 37.4592C21.6338 37.5309 21.6338 37.5309 21.5669 37.6041C21.2251 37.9814 20.9034 38.3726 20.5842 38.7693C20.3634 39.0349 20.1327 39.2884 19.8975 39.5411C19.5205 39.9463 19.1677 40.3653 18.8205 40.7966C18.6154 41.0446 18.4016 41.2818 18.1837 41.5186C17.8825 41.8481 17.5839 42.1791 17.2938 42.5184C17.2283 42.5943 17.1628 42.6702 17.0953 42.7484C16.9422 42.9578 16.9422 42.9578 16.9044 43.1892C16.9978 43.6087 17.3344 43.8064 17.6701 44.0445C17.767 44.1046 17.864 44.1648 17.9639 44.2268C18.0609 44.2881 18.1579 44.3493 18.2578 44.4125C18.6046 44.5908 18.6046 44.5908 18.9747 44.5509C19.4252 44.1131 19.7345 43.5413 20.0678 43.0128C20.1927 42.815 20.3177 42.6172 20.4427 42.4195C20.4742 42.3697 20.5056 42.3198 20.538 42.2685C20.7438 41.9436 20.9553 41.6231 21.1706 41.3044C22.1847 39.8394 22.1847 39.8394 22.4608 38.1232C22.4415 38.04 22.4223 37.9568 22.4024 37.8712C22.3869 37.7907 22.3714 37.7103 22.3554 37.6274C22.3401 37.552 22.3248 37.4765 22.309 37.3988C22.2935 37.3219 22.278 37.2451 22.262 37.166C22.2445 37.08 22.2445 37.08 22.2266 36.9923C22.1976 36.9923 22.1686 36.9923 22.1387 36.9923ZM25.3907 39.5411C25.0189 40.6372 25.0189 40.6372 24.737 41.7493C24.7208 41.8194 24.7045 41.8894 24.6877 41.9615C24.6733 42.0295 24.6589 42.0975 24.644 42.1675C24.6311 42.2268 24.6183 42.286 24.605 42.3471C24.598 42.5854 24.6834 42.7513 24.7755 42.9688C25.5876 42.9709 26.3997 42.9724 27.2118 42.9734C27.5888 42.9738 27.9659 42.9745 28.343 42.9755C28.7065 42.9764 29.0701 42.9769 29.4337 42.9772C29.5727 42.9773 29.7117 42.9776 29.8507 42.9781C30.0448 42.9788 30.2388 42.9788 30.4329 42.9788C30.5989 42.9791 30.5989 42.9791 30.7682 42.9794C31.0072 42.9971 31.0072 42.9971 31.1036 42.8809C31.1375 42.3116 31.0418 41.8117 30.9058 41.2605C30.8878 41.1822 30.8698 41.104 30.8512 41.0234C30.7205 40.4809 30.5486 40.0721 30.3126 39.5411C28.6884 39.5411 27.0641 39.5411 25.3907 39.5411ZM22.8419 43.4962C22.6762 44.0134 22.5119 44.5311 22.3489 45.0492C22.2932 45.2253 22.2372 45.4014 22.1808 45.5773C22.0998 45.8303 22.0201 46.0837 21.9406 46.3372C21.9152 46.4156 21.8898 46.4941 21.8635 46.575C21.6943 47.097 21.6943 47.097 21.7872 47.627C22.0367 47.9543 22.2425 48.0323 22.6441 48.0885C22.8269 48.1127 23.0101 48.1348 23.1934 48.1544C23.2627 48.1629 23.3319 48.1714 23.4032 48.1801C23.7239 48.2027 23.8718 48.1737 24.1272 47.9746C24.3729 47.6691 24.4297 47.4153 24.4751 47.0375C24.4842 46.9738 24.4933 46.91 24.5027 46.8443C24.5313 46.6422 24.5573 46.4398 24.5832 46.2373C24.6022 46.0995 24.6214 45.9618 24.6407 45.8241C24.6876 45.4878 24.7321 45.1513 24.7755 44.8145C24.667 44.7894 24.5586 44.7642 24.4469 44.7383C23.854 44.5892 23.4366 44.3488 23.111 43.8203C23.0776 43.759 23.0442 43.6977 23.0098 43.6345C22.9834 43.5889 22.957 43.5432 22.9298 43.4962C22.9008 43.4962 22.8718 43.4962 22.8419 43.4962Z" fill="#A47087"/>
<path d="M44.4629 27.4121C44.6799 27.4166 44.6799 27.4166 44.9023 27.5C45.0259 27.696 45.0259 27.696 45.1221 27.9559C45.1602 28.0512 45.1984 28.1465 45.2378 28.2447C45.3418 28.5547 45.3418 28.5547 45.3991 28.8675C45.5024 29.3367 45.5813 29.652 45.9871 29.9222C46.4825 30.1841 46.998 30.3918 47.5243 30.583C47.7148 30.6641 47.7148 30.6641 47.8906 30.8398C47.917 31.0881 47.917 31.0881 47.8027 31.3672C47.4243 31.5991 46.9978 31.7363 46.5831 31.8899C46.0013 32.1229 46.0013 32.1229 45.6511 32.6179C45.6037 32.7567 45.5592 32.8965 45.5176 33.0371C45.4661 33.1774 45.4139 33.3175 45.361 33.4573C45.2843 33.667 45.2083 33.8768 45.1348 34.0877C45.0972 34.189 45.0972 34.189 45.0589 34.2923C45.0372 34.3531 45.0155 34.4139 44.9931 34.4765C44.9023 34.6191 44.9023 34.6191 44.7332 34.6945C44.5508 34.707 44.5508 34.707 44.2871 34.5312C44.2013 34.318 44.2013 34.318 44.1254 34.052C43.8619 32.9665 43.8619 32.9665 43.2437 32.0868C42.977 31.9592 42.728 31.8778 42.4414 31.8066C41.7765 31.5547 41.7765 31.5547 41.4746 31.3672C41.3702 31.076 41.3702 31.076 41.3867 30.8398C41.7303 30.6108 42.0275 30.4213 42.4218 30.2888C42.9287 30.1097 43.3521 29.9425 43.6344 29.4617C43.8769 28.9205 44.0569 28.3608 44.2168 27.7903C44.2871 27.5879 44.2871 27.5879 44.4629 27.4121Z" fill="#A47087"/>
<path d="M38.3105 42.002C38.49 42.0131 38.49 42.0131 38.6621 42.0898C38.7348 42.242 38.7348 42.242 38.7785 42.439C38.9669 43.2523 38.9669 43.2523 39.4502 43.9018C39.7732 44.0873 40.1064 44.2126 40.4577 44.3335C40.5612 44.3762 40.6648 44.4189 40.7715 44.4629C40.8404 44.638 40.8404 44.638 40.8594 44.8145C40.6891 45.0901 40.4298 45.1379 40.1349 45.2353C39.7359 45.3768 39.389 45.51 39.1613 45.8838C38.9744 46.3122 38.8453 46.7554 38.7376 47.2098C38.6621 47.3633 38.6621 47.3633 38.4787 47.4292C38.4232 47.4365 38.3677 47.4437 38.3105 47.4512C38.074 47.189 37.9998 46.9419 37.912 46.6042C37.7683 46.0898 37.6297 45.7231 37.1529 45.4448C36.7871 45.2639 36.4116 45.121 36.0254 44.9902C36.0254 44.8162 36.0254 44.6422 36.0254 44.4629C36.1261 44.4305 36.2268 44.3981 36.3306 44.3647C37.1904 44.0539 37.1904 44.0539 37.7496 43.367C37.886 43.0295 37.9931 42.6847 38.082 42.3318C38.1348 42.1777 38.1348 42.1777 38.3105 42.002Z" fill="#A47087"/>
<path d="M9.39453 23.8086C9.51055 23.8086 9.62656 23.8086 9.74609 23.8086C9.75957 23.8582 9.77304 23.9077 9.78693 23.9588C10.0795 25.051 10.0795 25.051 10.8286 25.8397C11.1889 26.0191 11.5587 26.1524 11.9434 26.2695C11.9434 26.4146 11.9434 26.5596 11.9434 26.709C11.7129 26.8266 11.4821 26.9437 11.2512 27.0605C11.1856 27.0941 11.12 27.1276 11.0524 27.1622C10.9581 27.2098 10.9581 27.2098 10.8619 27.2583C10.8039 27.2878 10.7459 27.3172 10.6862 27.3476C10.5371 27.4121 10.5371 27.4121 10.3613 27.4121C10.3464 27.4654 10.3314 27.5186 10.316 27.5735C10.1578 28.1205 9.96616 28.6449 9.74609 29.1699C9.60107 29.1699 9.45605 29.1699 9.30664 29.1699C9.29491 29.1226 9.28317 29.0752 9.27109 29.0264C9.03374 28.0067 9.03374 28.0067 8.36628 27.2614C8.13824 27.1505 7.90614 27.0658 7.66556 26.9864C7.24469 26.8402 7.24469 26.8402 7.10938 26.6211C7.1283 26.446 7.1283 26.446 7.19727 26.2695C7.36483 26.1885 7.53317 26.1087 7.70521 26.0376C8.23675 25.8141 8.66151 25.6129 8.92418 25.0782C9.08096 24.6926 9.19549 24.2973 9.30664 23.8965C9.33564 23.8675 9.36465 23.8385 9.39453 23.8086Z" fill="#A47087"/>
<path d="M10.8973 36.039C11.3189 36.3612 11.5102 36.7347 11.5919 37.2557C11.6121 37.7892 11.5006 38.1582 11.1524 38.5741C10.7869 38.9297 10.4168 39.0964 9.90101 39.1045C9.33208 39.0653 8.99682 38.8674 8.58162 38.4752C8.32694 38.0568 8.2069 37.6157 8.28808 37.1263C8.44475 36.6135 8.65466 36.2398 9.12544 35.9594C9.73451 35.7108 10.3116 35.7161 10.8973 36.039Z" fill="#A47087"/>
<path d="M45.0781 39.3653C45.3308 39.5466 45.3308 39.5466 45.5176 39.8048C45.5731 40.1562 45.5773 40.3328 45.3748 40.6288C45.1166 40.8054 44.9516 40.8531 44.6387 40.8595C44.2375 40.6722 44.2375 40.6722 44.1114 40.42C44.0864 40.1621 44.0678 39.9673 44.1114 39.7169C44.397 39.3809 44.6438 39.2839 45.0781 39.3653Z" fill="#A47087"/>
</g>
<defs>
<clipPath id="clip0_1_178">
<rect width="45" height="45" fill="white" transform="translate(5 5)"/>
</clipPath>
</defs>
</svg>
