<svg xmlns="http://www.w3.org/2000/svg" width="56" height="56" fill="none"><circle cx="28" cy="28" r="27.5" stroke="#A47087"/><g fill="#A47087" clip-path="url(#a)"><path d="M29.363 5.468c.454.315 1.019.768 1.186 1.311l.027.155.178-.026c1.13-.136 2.095.102 3.015.795.552.504.88 1.164 1.114 1.867l.257.026c1.542.178 1.542.178 2.118.646.207.142.283.141.525.097l.176-.028c.174-.035.174-.035.337-.084 1.059-.23 2.074.021 2.969.593.733.548 1.278 1.354 1.44 2.266.009.214.012.428.011.643v.34c-.01.335-.01.335-.075.664-.054.285-.054.285.106.473l.189.154c.67.609 1.032 1.41 1.113 2.311.029 1.077-.257 2.021-1.002 2.821a4.1 4.1 0 0 1-1.572.944c-.113.248-.113.248-.204.56l-.114.358-.06.192c-1.405 4.482-3.668 9.934-7.796 12.6h-.176l.11.153c.501.755.69 1.512.522 2.413-.22.743-.755 1.284-1.423 1.653l.047.177a554.259 554.259 0 0 1 .285 1.08l.072.271.065.248c.182.767.347 1.834.015 2.58-.32.513-.794.9-1.363 1.094-.236.02-.236.02-.493.02h-.294l-.313-.003-.323-.001a799.737 799.737 0 0 0-1.713-.008l-1.698-.008-.016.209a21.948 21.948 0 0 1-.275 2.098l-.053.323c-.16.911-.405 1.615-1.15 2.203-.833.584-1.98.415-2.933.253-.755-.147-1.359-.425-1.851-1.027-.455-.677-.592-1.376-.45-2.176.042-.19.087-.377.136-.565l-.139.058c-.7.264-1.43.345-2.132.039-1.076-.552-2.245-1.165-2.65-2.382-.076-.895-.048-1.62.55-2.33.22-.248.446-.488.676-.727.236-.247.455-.504.669-.772.279-.347.57-.68.873-1.005.377-.405.73-.825 1.077-1.256.205-.248.419-.485.637-.722.359-.39.695-.792 1.026-1.206.147-.176.294-.342.452-.507l.125-.132.35-.36c.175-.193.175-.193.155-.4-.103-.194-.204-.286-.378-.421-3.06-2.575-4.885-6.654-6.235-10.328l-.063-.17c-.188-.516-.364-1.004-.442-1.549-.058-.006-.116-.01-.176-.017-.37-.1-.652-.295-.966-.51l-.231-.154a3.611 3.611 0 0 1-1.13-2.508c-.01-.858.133-1.563.652-2.266.14-.21.19-.293.15-.544a16.13 16.13 0 0 0-.157-.437c-.26-.839-.072-1.718.295-2.49.499-.91 1.226-1.46 2.187-1.807.342-.096.66-.079 1.013-.062.876.066.876.066 1.637-.301l.168-.17c.534-.527 1.305-.612 2.018-.61h.325c.28.01.28.01.543.099l.011-.21c.155-.64.545-1.209 1.044-1.636l.15-.13c.487-.4 1.076-.697 1.71-.771.26-.106.3-.309.409-.56.392-.827.95-1.307 1.774-1.703 1.089-.382 2.367-.304 3.357.292Zm-3.251 1.904c-.3.413-.502.801-.458 1.32.123.573.123.573.528.966l.129-.09c.898-.597 1.73-.572 2.771-.437.124-.64.089-1.108-.264-1.67-.406-.403-.8-.625-1.378-.643-.556.01-.95.136-1.328.554Zm4.904 1.407-.09.293-.119.383-.06.192c-.102.332-.211.657-.346.978l.292.087.383.116.192.057c.359.11.664.232.978.443.134-.134.265-.27.396-.406l.222-.229c.206-.29.222-.423.173-.771-.179-.476-.505-.82-.943-1.07-.355-.13-.707-.107-1.078-.073Zm-7.823.967c-.386.419-.58.81-.567 1.39.08.386.331.678.567.983l.182.258c.297.317.579.368 1 .385.364-.008.618-.09.928-.291.165-.33.09-.707 0-1.055-.209-.204-.209-.204-.373-.31-.497-.415-.808-1.115-1.033-1.711-.296 0-.472.18-.704.351Zm3.708.76c-.394.45-.487.798-.48 1.393.048.428.285.664.59.945.439.3.74.364 1.262.29.488-.12.795-.438 1.073-.839.134-.403.17-.824.024-1.23-.24-.45-.53-.711-.997-.901-.542-.139-1.055-.036-1.472.343Zm7.02 1.613c-.368.537-.426.933-.356 1.582.143.565.476.836.956 1.14.191.11.191.11.45.09.122-.132.122-.132.225-.301.198-.305.198-.305.39-.401.018-.187.028-.374.033-.56.033-.604.172-1.085.407-1.638l.087-.263c-.788-.379-1.582-.36-2.191.351Zm-15.273.44c-.298.468-.407.844-.376 1.406l.175.264.151-.043c.795-.18 1.556.006 2.244.428.143.1.281.208.418.318.41-.596.527-1.039.44-1.758a2.042 2.042 0 0 0-1.132-1.165c-.718-.172-1.423-.031-1.92.55Zm19.047.175c-.167.287-.263.543-.263.88l.167.042c.791.215 1.373.514 1.854 1.188.093.173.183.348.264.527.517-.216.811-.51 1.082-1 .154-.587.078-1.017-.203-1.549-.276-.456-.648-.634-1.143-.79-.715-.087-1.258.203-1.758.702Zm-7.294-.175-.132.313c-.322.634-.79.977-1.45 1.22-.146.047-.293.093-.44.137.01.56.143.832.511 1.251.253.204.505.3.807.418.03-.078.058-.157.088-.238.38-.967.87-1.765 1.846-2.222-.24-.408-.452-.648-.879-.88h-.351Zm-15.354.895c-.32.39-.526.75-.599 1.252.084.598.266 1.039.753 1.412.34.236.608.32 1.022.313a88.065 88.065 0 0 0 .379-.005c.256-.708.281-1.129 0-1.824-.162-.525-.115-1.06-.088-1.604-.6-.013-.992.07-1.467.456Zm10.866.73-.245.124-.19.096c.055.3.17.49.347.736.209.303.352.574.445.934l.527-.176a49.618 49.618 0 0 0-.225-1.263l-.037-.196-.09-.474c-.184 0-.372.139-.532.22Zm10.08 1.116c-.232.4-.352.781-.292 1.246.142.52.41.813.852 1.11.35.176.761.133 1.142.088.424-.15.702-.384.923-.774.151-.361.219-.686.132-1.071a2.33 2.33 0 0 0-.879-1.055c-.73-.243-1.327-.052-1.879.456Zm-17.98.522c-.314.438-.313.776-.269 1.307.155.456.4.691.791.967.423.202.785.21 1.23.088.464-.25.799-.55.968-1.055.05-.5.026-.892-.264-1.318-.379-.363-.694-.58-1.214-.649a1.83 1.83 0 0 0-1.242.66Zm14.145-.627-.209.242-.117.136c-.268.354-.31.606-.3 1.05a181.298 181.298 0 0 0 .011.506l.315.013c.732.034 1.432.078 2.146.25l.527-.615-.241-.09c-.713-.284-1.24-.581-1.78-1.14a10183728650578.463 10183728650578.463 0 0 0-.352-.352Zm-8.965.176-.132.177c-.36.467-.685.829-1.186 1.141.164.171.328.334.513.482.484.392.778.815 1.07 1.364.435-.058.587-.195.852-.53.28-.425.326-.835.243-1.323-.134-.548-.448-.927-.92-1.223-.232-.06-.232-.06-.44-.088Zm17.595 1.483a6.158 6.158 0 0 1-1.071.45c.08.206.16.409.26.605.282.572.369 1.139.443 1.769.602-.022.988-.172 1.406-.615.287-.444.427-.877.352-1.407-.137-.397-.278-.786-.615-1.054-.326 0-.488.101-.775.252Zm-13.991 1.33c-.292.375-.366.762-.352 1.23.087.36.235.659.44.967.336-.065.529-.208.793-.417.476-.302.938-.31 1.481-.297l.209.002c.168.002.337.005.505.009.085-.555.104-.908-.176-1.406-.346-.4-.707-.76-1.254-.81-.736-.013-1.15.159-1.646.722Zm-12.656-.44a1.838 1.838 0 0 0-.119 1.42c.202.45.5.767.91 1.041.265.089.458.105.736.11l.25.007c.299-.035.453-.098.684-.293.084-.257.084-.257.104-.549a6.2 6.2 0 0 1 .247-1.208 404.95 404.95 0 0 0-.293-.007c-.704-.024-1.318-.07-1.974-.35a2.975 2.975 0 0 0-.545-.17Zm21.357.703c-.094.342-.085.508.072.824.256.585.304 1.182.368 1.813.473.212.893.246 1.406.176.535-.215.892-.578 1.164-1.082.13-.464.12-.812-.066-1.247l-.131-.22-.22.045c-.894.163-1.523.124-2.33-.309h-.263Zm-14.326.088-.123.106c-.783.636-1.524.731-2.514.685-.177.355-.144.787-.028 1.16.246.535.621.899 1.17 1.125.54.063 1.044.065 1.495-.263.431-.43.712-.752.73-1.38-.004-.45-.106-.805-.379-1.17-.18-.148-.18-.148-.351-.263Zm10.723.44c-.14.475-.262.953-.38 1.435a7.285 7.285 0 0 1-.148.498l.258.043c.644.112 1.194.243 1.768.573.179.107.179.107.435.087.211-.514.35-.95.176-1.494-.224-.488-.488-.794-.967-1.054-.265-.089-.443-.097-.72-.094l-.24.003-.182.003Zm-7.647 1.758c-.365.384-.502.739-.56 1.263.057.554.272.947.687 1.318.445.348.796.456 1.367.407.365-.128.618-.246.88-.528-.096-.627-.096-.627-.44-1.14a21.434 21.434 0 0 0-.414-.288c-.455-.347-.706-.858-.905-1.384-.218 0-.45.232-.615.352Zm3.576.549c-.23.373-.365.708-.288 1.15.156.513.363.88.816 1.184.474.17.884.17 1.362.011.393-.27.71-.592.862-1.049.033-.493.021-.808-.263-1.23-.377-.372-.662-.627-1.203-.643-.567.007-.877.179-1.286.577Zm-11.222.769c.132.755.417 1.438.708 2.142l.078.19c1.078 2.623 2.365 5.086 4.223 7.248.06.07.12.14.18.213.38.438.775.83 1.227 1.193l.206.167c.482.369.988.682 1.518.976l.185.106c.467.25.815.279 1.343.245a6 6 0 0 0-.425-1.025l-.147-.282-.154-.291-.149-.286c-.293-.56-.293-.56-.598-1.113l-.146-.258-.133-.229c-.145-.318-.12-.496-.006-.822.264-.132.41-.14.703-.088.425.496.693 1.175.989 1.752.1.195.2.39.302.584l.148.29c.201.387.405.773.61 1.159l.1.19.224.42h.615l.357-.67.116-.218c.258-.488.502-.98.74-1.477l.261-.543.17-.36c.08-.172.162-.342.244-.513l.142-.3c.168-.226.168-.226.437-.311.3-.004.397.056.61.26-.04.578-.197.99-.462 1.5l-.112.22-.355.692a415.016 415.016 0 0 0-.577 1.13c-.174.282-.174.282-.252.59 1.027.156 1.875-.345 2.689-.921.284-.21.556-.434.826-.662l.225-.187c1.422-1.223 2.466-2.85 3.379-4.47l.115-.205c.845-1.503 1.495-3.102 2.104-4.712l.08-.208c.145-.377.145-.377.074-.765l-.197.11c-1.11.589-1.926.63-3.143.418l-.303-.05-.224-.038c-.154.128-.154.128-.264.351.002.191.03.373.058.562.149 1.133-.057 2.189-.757 3.11-.665.72-1.512 1.106-2.483 1.177-.517.018-.947-.068-1.437-.23-.235-.053-.346-.054-.567.04-.137.125-.137.125-.263.28-.597.627-1.417.954-2.271.976-1.055.01-1.914-.21-2.74-.905-.71-.722-.984-1.593-.999-2.582.004-.496.004-.496-.177-.945-.156-.123-.156-.123-.325-.221-.446-.315-.683-.94-.871-1.437l-.23.077-.298.098-.241.094c-1.086.313-2.048.125-3.038-.39-.466-.283-.728-.568-1.027-1.022-.233 0-.403.086-.615.176Zm15.029.79-.09.21c-.348.753-.718 1.29-1.492 1.631l-.264.094c.058.493.291.822.643 1.164.444.289.864.376 1.38.289.554-.15.906-.464 1.23-.926.23-.464.198-.911.087-1.406-.214-.42-.49-.7-.879-.967-.327-.078-.327-.078-.615-.088Zm-4.208 2.094c-.673.453-1.412.566-2.208.632-.057.453.067.705.314 1.07.283.362.657.65 1.118.717.67.01 1.118-.131 1.606-.595.144-.212.144-.212.12-.429a22.873 22.873 0 0 0-.278-.752c-.105-.291-.173-.588-.243-.89-.164 0-.302.154-.429.247Zm-3.218 11.648c-.156.229-.156.229-.127.508.088.27.117.357.346.517.236.026.451.036.687.034l.212.001H26.5l1.01-.001c.431-.002.863 0 1.295 0a194.045 194.045 0 0 0 1.472.001c.223.001.445 0 .668-.001l.2.001c.35-.004.35-.004.66-.15.157-.258.127-.472.09-.764-.129-.206-.129-.206-.351-.352a4.276 4.276 0 0 0-.688-.047l-.209-.002a375.1 375.1 0 0 1-1.157-.002h-.995c-.425.002-.85 0-1.275-.003-.327-.002-.653-.002-.98-.001-.157 0-.314 0-.47-.002-.22-.002-.438 0-.657.002l-.196-.004c-.33.007-.467.035-.711.265Zm-2.066.41c-.15.153-.296.308-.44.466l-.132.145c-.342.377-.664.769-.983 1.165-.22.266-.451.52-.686.772-.378.405-.73.824-1.078 1.256-.205.248-.418.485-.636.722-.302.33-.6.66-.89 1l-.199.23c-.153.209-.153.209-.19.44.093.42.43.617.765.855l.294.183.294.186c.347.178.347.178.717.138.45-.438.76-1.01 1.093-1.538l.375-.593.095-.151c.206-.325.417-.646.633-.965 1.014-1.465 1.014-1.465 1.29-3.18l-.059-.253-.047-.244-.046-.228a343.47 343.47 0 0 0-.047-.233l-.035-.174h-.088Zm3.252 2.548c-.372 1.096-.372 1.096-.654 2.208l-.05.212-.043.206-.039.18c-.007.238.078.404.17.622a1798.664 1798.664 0 0 0 4.659.008l.417.001h.582l.335.001c.24.018.24.018.336-.098.034-.57-.062-1.07-.198-1.62l-.055-.238c-.13-.542-.302-.95-.538-1.482H25.39Zm-2.55 3.955a310.973 310.973 0 0 0-.66 2.081c-.081.253-.16.507-.24.76l-.078.238c-.169.522-.169.522-.076 1.052.25.327.456.405.857.462.183.024.366.046.55.065l.21.026c.32.023.468-.006.723-.205.246-.306.303-.56.348-.938l.028-.193c.028-.202.054-.404.08-.607l.058-.413c.047-.336.091-.673.135-1.01l-.33-.076c-.592-.149-1.01-.39-1.335-.918l-.101-.185-.08-.139h-.088ZM44.463 27.412c.217.005.217.005.44.088.123.196.123.196.22.456l.115.289c.104.31.104.31.161.622.103.47.182.785.588 1.055.495.262 1.011.47 1.537.661.19.081.19.081.367.257.026.248.026.248-.088.527-.379.232-.805.37-1.22.523-.582.233-.582.233-.932.728-.047.139-.092.279-.133.42l-.157.42c-.077.209-.153.419-.226.63l-.076.204-.066.184c-.09.143-.09.143-.26.218-.182.013-.182.013-.446-.163-.086-.213-.086-.213-.162-.479-.263-1.085-.263-1.085-.881-1.965a4.036 4.036 0 0 0-.803-.28c-.665-.252-.665-.252-.966-.44-.105-.291-.105-.291-.088-.527.343-.23.64-.419 1.035-.551.507-.18.93-.347 1.212-.827.243-.541.423-1.101.583-1.672.07-.202.07-.202.246-.378ZM38.31 42.002c.18.011.18.011.352.088.073.152.073.152.117.349.188.813.188.813.671 1.463.323.185.656.31 1.008.431l.314.13a.907.907 0 0 1 .087.352c-.17.275-.43.323-.724.42-.4.142-.746.275-.974.649a7.765 7.765 0 0 0-.423 1.326c-.076.153-.076.153-.26.22l-.168.021c-.236-.262-.31-.51-.398-.847-.144-.514-.282-.88-.76-1.16a9.117 9.117 0 0 0-1.127-.454v-.527l.306-.098c.86-.311.86-.311 1.419-.998a7.9 7.9 0 0 0 .332-1.035c.053-.154.053-.154.228-.33ZM9.395 23.809h.351l.04.15c.293 1.092.293 1.092 1.043 1.88.36.18.73.313 1.114.43v.44l-.692.352-.199.101-.19.096-.176.09c-.149.064-.149.064-.325.064l-.045.162c-.158.546-.35 1.07-.57 1.596h-.44l-.035-.144c-.237-1.02-.237-1.02-.905-1.765a5.577 5.577 0 0 0-.7-.275c-.421-.146-.421-.146-.557-.365.02-.175.02-.175.088-.351.168-.081.336-.161.508-.232.532-.224.957-.425 1.22-.96.156-.385.27-.78.382-1.181l.088-.088ZM10.897 36.039c.422.322.613.696.695 1.217.02.533-.091.902-.44 1.318-.365.356-.735.522-1.251.53-.569-.039-.904-.237-1.32-.629-.254-.418-.374-.86-.293-1.349.157-.512.367-.886.837-1.167.61-.248 1.187-.243 1.772.08ZM45.078 39.365c.253.182.253.182.44.44.055.351.06.528-.143.824-.258.176-.423.224-.736.23-.402-.187-.402-.187-.528-.439-.025-.258-.043-.453 0-.703.286-.336.533-.433.967-.352Z"/></g><defs><clipPath id="a"><path fill="#fff" d="M5 5h45v45H5z"/></clipPath></defs></svg>