<svg xmlns="http://www.w3.org/2000/svg" width="56" height="56" fill="none"><g clip-path="url(#a)"><path fill="#906E7E" d="m26.046 9.984.168-.002c1.205-.012 2.367-.006 3.542.291l.18.044c2.08.507 3.871 1.52 5.494 2.896l.15.125c.278.235.52.482.755.759.079.092.16.183.243.272 1.984 2.124 3.044 5.058 3.158 7.936l.011.206c.104 3.523-1.922 7.104-3.634 10.048l-.11.19c-1.162 2.005-2.443 3.937-3.786 5.825l-.11.155a79.41 79.41 0 0 1-1.751 2.353l-.312.408a44.916 44.916 0 0 1-2.749 3.305l-.098.118c-.199.16-.416.131-.662.122-.359-.064-.557-.265-.812-.514l-.117-.11a15.785 15.785 0 0 1-1.524-1.667 39.303 39.303 0 0 1-1.729-2.232 88.487 88.487 0 0 0-.336-.459c-1.853-2.525-3.492-5.217-4.976-7.973l-.112-.206c-1.208-2.226-2.229-4.573-2.827-7.04l-.04-.164c-.674-2.919.196-6.166 1.74-8.667.536-.847 1.163-1.588 1.854-2.312l.125-.135c2.037-2.155 5.321-3.543 8.265-3.572Zm-1.759 1.383-.17.036c-2.104.45-3.922 1.542-5.504 2.972l-.18.163c-.816.776-1.47 1.723-2.007 2.708l-.072.132c-.55 1.019-.916 2.087-1.159 3.218l-.047.213c-.556 3.087.645 6.083 1.962 8.81l.07.147c.128.264.26.525.394.786l.183.36c.533 1.05 1.09 2.08 1.696 3.091l.338.569c.677 1.138 1.417 2.236 2.158 3.334l.221.328a49.292 49.292 0 0 0 2.459 3.348l.16.2c.314.39.642.764.982 1.132.133.145.259.293.383.445.154.183.31.302.526.41.368-.346.687-.723 1.002-1.117l.3-.366c.48-.584.94-1.178 1.39-1.785l.361-.481a67.132 67.132 0 0 0 1.499-2.06 66.497 66.497 0 0 0 3.35-5.102c.586-.972 1.14-1.96 1.668-2.965l.1-.19c1.756-3.343 2.846-6.776 1.699-10.49-.234-.71-.555-1.38-.91-2.035l-.07-.13c-1.482-2.702-4.075-4.603-6.988-5.501l-.152-.047c-.972-.282-1.923-.372-2.931-.365-.186.001-.371 0-.557-.001-.743 0-1.429.066-2.154.233Z"/><path fill="#8D6275" d="M30.69 17.516c.17.135.336.273.502.414l.122.092c1.154.893 1.893 2.46 2.133 3.873.016.308.013.617.013.927l.003.25c.001.764-.08 1.463-.37 2.172l-.064.16c-.714 1.735-2.047 2.988-3.752 3.737-.8.312-1.54.432-2.396.423h-.232c-.652-.004-1.239-.046-1.858-.257l-.16-.055c-1.65-.584-3.036-1.738-3.825-3.314-.128-.272-.24-.55-.347-.83l-.066-.169c-.534-1.466-.394-3.208.239-4.62.883-1.776 2.228-3.062 4.104-3.744.1-.029.202-.056.303-.08.07-.02.142-.039.215-.058 1.843-.434 3.898-.049 5.435 1.079Zm-8.112 1.78c-1.091 1.266-1.392 2.683-1.313 4.31.08 1.077.61 2.13 1.313 2.937l.16.2c.793.95 2.068 1.499 3.258 1.714 1.556.138 3.013-.195 4.26-1.158.108-.091.215-.184.32-.277l.142-.123c.903-.834 1.575-2.162 1.645-3.386.05-1.565-.255-2.993-1.338-4.173-.125-.131-.252-.258-.38-.385l-.156-.156c-1.121-1.058-2.518-1.395-4.016-1.365-1.524.058-2.863.763-3.895 1.863Z"/><path fill="#996E81" d="M42.182 11.442c.418.314.67.787.767 1.293a2.188 2.188 0 0 1-.381 1.526c-.302.367-.646.64-1.123.73-.742.047-1.25.02-1.828-.458-.377-.353-.593-.75-.649-1.265-.018-.57.119-1.095.473-1.55.738-.781 1.855-.823 2.741-.276Z"/><path fill="#A47087" d="M14.58 37.344c.236.145.322.215.41.478.005.187.007.373.005.56l-.001.155-.004.379.242-.01.318-.007.16-.007c.274-.005.408.002.647.153.178.187.202.247.227.508-.025.291-.091.39-.295.593-.226.114-.478.076-.726.073a101.094 101.094 0 0 1-.573-.004l.008.227.005.298.005.15c.005.314-.026.513-.223.76-.25.168-.46.194-.752.137-.22-.173-.321-.281-.41-.547-.005-.176-.006-.35-.004-.525v-.146l.004-.354-.242.01-.318.007-.159.007c-.27.005-.41-.005-.647-.145-.176-.195-.203-.306-.22-.56.023-.233.139-.376.287-.55.226-.113.478-.075.727-.072h.166l.406.004-.007-.21-.006-.277-.005-.138c-.005-.323.05-.538.223-.81.252-.169.46-.185.752-.137ZM41.172 12.393c.19.084.304.159.436.32.066.246.05.462-.026.705-.146.177-.247.255-.474.299a1.07 1.07 0 0 1-.615-.124c-.2-.247-.24-.475-.21-.79.24-.397.438-.441.889-.41Z"/></g><circle cx="28" cy="28" r="27.5" stroke="#A47087"/><defs><clipPath id="a"><path fill="#fff" d="M10 10h35v35H10z"/></clipPath></defs></svg>