<svg xmlns="http://www.w3.org/2000/svg" width="56" height="56" fill="none"><path fill="#A47087" d="M31.92 24.994c1.296 1.026 2.312 2.51 2.525 4.178.14 2.123-.208 3.876-1.639 5.531a7.017 7.017 0 0 1-.9.816h-.195v.196l.247.028c1.774.364 3.463 1.87 4.461 3.311 1.097 1.728 1.558 3.43 1.566 5.468l.006.376a2642.303 2642.303 0 0 1 .005.688c-.04.328-.098.442-.328.676-.245.05-.245.05-.54.05l-.334.004-.362-.002h-.371c-.26.001-.518 0-.777-.001-.332-.003-.664-.001-.996.001-.317.002-.634 0-.95 0l-.362.002-.335-.004h-.295c-.244-.05-.244-.05-.422-.23-.157-.287-.156-.475-.115-.797.121-.21.121-.21.293-.39.202-.048.202-.048.436-.045h.267l.286.006.295.002c.31.002.62.007.931.012l.631.005c.516.005 1.032.011 1.548.02a169.324 169.324 0 0 0-.05-1.001c-.092-1.715-.745-3.384-1.903-4.664l-.168-.195c-1.095-1.19-2.755-2.036-4.37-2.168a23.86 23.86 0 0 0-.776-.013l-.288-.002-.6-.002c-.302 0-.603-.004-.905-.007-2.111-.012-3.882.445-5.49 1.9-.07.06-.139.121-.21.184-1.696 1.59-2.13 3.752-2.232 5.968l.165-.003c.565-.009 1.13-.015 1.696-.019l.634-.008c.303-.005.606-.007.91-.009l.286-.006h.267l.234-.003c.202.047.202.047.374.227.165.286.162.472.121.797-.115.21-.115.21-.293.39-.244.05-.244.05-.54.051l-.334.004-.362-.002h-.37c-.26.001-.519 0-.778-.001-.332-.003-.664-.001-.996.001-.317.002-.633 0-.95 0l-.362.002-.334-.004h-.295c-.245-.05-.245-.05-.423-.232-.152-.276-.153-.48-.154-.794l-.002-.347.004-.368.003-.375c.04-2.495.957-4.675 2.7-6.466.868-.822 2.336-2.015 3.584-2.015v-.196l-.173-.08c-1.182-.623-1.973-2.008-2.366-3.24-.498-1.764-.267-3.622.579-5.228.87-1.507 2.295-2.55 3.95-3.06 1.965-.432 3.995-.084 5.64 1.083Zm-7.671 1.835c-1.036 1.3-1.402 2.656-1.23 4.296a5.088 5.088 0 0 0 1.999 3.207c1.244.844 2.552 1.138 4.03.873 1.316-.316 2.351-1.039 3.151-2.127.766-1.287.979-2.6.718-4.07-.342-1.224-1.054-2.298-2.154-2.964-2.128-1.192-4.771-1.128-6.514.785Z"/><path fill="#A47087" d="m27.25 44.856.366-.002.384.004.384-.003h.367l.337.002c.28.038.28.038.462.175.137.194.15.31.147.546l.002.202c-.052.254-.124.326-.332.482-.28.038-.28.038-.616.039h-.367c-.19 0-.19 0-.384-.003l-.384.004-.367-.001-.336-.001c-.28-.038-.28-.038-.463-.175-.137-.195-.15-.31-.147-.547l-.002-.201c.107-.52.485-.52.948-.521ZM37.766 20.285c.195.159.195.159.293.39-.009.55-.156.816-.53 1.19l-.172.166-.167.171c-.343.336-.584.514-1.084.524-.275-.097-.275-.097-.489-.293-.122-.31-.122-.31-.097-.683.19-.299.43-.535.683-.781l.191-.198c.477-.491.66-.648 1.372-.486ZM19.113 20.285c.248.177.454.386.666.604l.173.168c.338.342.52.58.528 1.084-.097.274-.097.274-.293.488-.31.122-.31.122-.683.098-.3-.19-.534-.432-.781-.684l-.198-.174c-.317-.285-.469-.454-.596-.87.014-.354.048-.475.305-.714.36-.12.514-.107.88 0ZM14.935 29.524l.3-.002.314.004.313-.003h.3l.275.002c.277.044.36.11.528.33.116.316.119.44-.018.751-.195.249-.274.315-.568.421-.279.022-.545.032-.824.03l-.222.006c-.45 0-.732-.046-1.102-.329-.183-.183-.121-.439-.13-.682.078-.476.406-.527.834-.528ZM39.838 29.524l.3-.002.313.004.313-.003h.3l.276.002c.275.044.362.11.527.33a2.14 2.14 0 0 1 0 .782c-.177.26-.28.289-.586.39-.274.015-.544.023-.817.025l-.224.006c-.453.003-.734-.038-1.107-.324-.183-.183-.12-.439-.13-.682.078-.476.407-.527.835-.528ZM28 16.342l.201-.002c.25.052.326.131.483.332.064.37.05.743.048 1.117l.009.31c.002.75.002.75-.285 1.085-.334.16-.497.14-.847.027-.223-.166-.286-.25-.33-.528l-.002-.275v-.3l.003-.313-.004-.313.002-.3v-.275c.07-.43.304-.57.722-.565ZM38.681 14.884l.338-.011c.31.041.31.041.541.217.159.215.159.215.214.557-.055.341-.055.341-.226.58-.48.23-.967.232-1.49.152-.297-.174-.373-.241-.482-.574-.007-.361.069-.51.287-.793.275-.138.512-.122.818-.128ZM12.631 36.984c.44.13.44.13.623.391.046.314.046.314.049.678l.009.362c-.058.327-.058.327-.283.566-.263.152-.263.152-.617.152-.371-.11-.436-.162-.623-.489-.09-.546-.094-1.02.202-1.495.286-.165.286-.165.64-.165ZM13.254 13.645c.162.108.162.108.293.293.042.313.042.313.043.677l.005.363c-.048.327-.048.327-.228.562-.21.155-.21.155-.498.21-.299-.055-.299-.055-.58-.232-.302-.453-.281-.855-.207-1.385.128-.305.128-.305.293-.488.347-.116.527-.088.879 0ZM40.561 12.76c.368.115.436.168.623.494.09.547.094 1.02-.202 1.495-.287.165-.287.165-.64.165-.435-.129-.435-.129-.623-.39-.09-.573-.105-1.1.201-1.6.287-.158.287-.158.641-.165ZM13.156 10.031c.21.156.21.156.39.39.05.328.05.328.043.69v.364c-.042.314-.042.314-.174.498-.249.169-.448.195-.747.207-.275-.122-.275-.122-.488-.293-.151-.453-.159-.895-.098-1.367.295-.443.544-.59 1.074-.489ZM13.059 40.695c.23.345.227.513.232.922l.008.335c-.045.306-.045.306-.221.538-.215.158-.215.158-.557.213-.341-.055-.341-.055-.58-.226-.229-.476-.25-.97-.152-1.489.398-.498.693-.538 1.27-.293ZM40.793 16.379c.291.216.38.332.443.693l-.003.332.003.333c-.062.36-.152.476-.443.693-.378.054-.586.072-.897-.16-.231-.302-.23-.488-.226-.866l-.003-.332c.112-.653.513-.78 1.126-.693ZM42.209 14.871h.333c.325.046.46.109.692.336.136.335.107.465-.024.806-.17.268-.17.268-.464.366-.499.047-.93.07-1.385-.153-.177-.238-.177-.238-.232-.58.105-.656.453-.785 1.08-.775ZM14.328 39.078l.36-.007c.324.062.324.062.562.29.152.26.152.26.146.565-.092.283-.148.401-.384.574-.497.165-.986.183-1.465-.037-.258-.21-.288-.303-.324-.635.03-.305.03-.305.185-.516.317-.24.526-.235.92-.234ZM10.764 39.09l.2-.006c.314 0 .487.007.722.225.15.314.14.556.103.898-.179.255-.284.29-.586.39-.531.053-.93.049-1.367-.292-.183-.183-.12-.44-.13-.683.032-.196.032-.196.135-.365.291-.19.586-.17.923-.167ZM14.627 12.143l.364.004c.314.033.314.033.607.228.081.339.132.582.018.915-.116.16-.116.16-.311.257-.224.017-.448.026-.672.03l-.365.011c-.33-.041-.33-.041-.566-.22-.155-.212-.155-.212-.204-.505.11-.66.523-.734 1.13-.72ZM11.057 12.143l.2-.003c.28.001.484.008.722.164.123.202.142.324.14.56l.002.2c-.039.19-.039.19-.142.358-.29.19-.586.167-.922.161l-.2.004c-.281-.002-.484-.009-.723-.165-.123-.201-.142-.323-.14-.559 0-.066 0-.133-.002-.201.04-.19.04-.19.142-.358.291-.19.587-.167.923-.161Z"/><circle cx="28" cy="28" r="27.5" stroke="#A47087"/></svg>