<svg width="25" height="24" fill="none" xmlns="http://www.w3.org/2000/svg"><path d="M12.305.96C6.34.96 1.46 5.486 1.46 11.098c0 3.069 1.477 5.793 3.772 7.648v4.214l.693-.368 3.404-1.769c.95.255 1.94.413 2.976.413 5.966 0 10.846-4.526 10.846-10.138S18.27.96 12.305.96Zm0 .943c5.491 0 9.902 4.13 9.902 9.195s-4.411 9.195-9.902 9.195c-1.02 0-2.008-.147-2.932-.413l-.177-.044-.162.088-2.859 1.489v-3.095l-.177-.132c-2.199-1.693-3.595-4.24-3.595-7.088 0-5.065 4.411-9.195 9.902-9.195ZM11.23 8.372l-5.674 6.012 5.099-2.859 2.726 2.918 5.6-6.071-4.967 2.785-2.784-2.785Z" fill="#E5E5E5"/></svg>