<svg width="63" height="26" viewBox="0 0 63 26" fill="none" xmlns="http://www.w3.org/2000/svg">
<g clip-path="url(#clip0_1_16)">
<path d="M2.49049 6C2.30741 6 2.15192 6.188 2.12329 6.44399L0.00415587 25.4538C-0.0035443 25.5233 -0.000518698 25.5942 0.0130213 25.6619C0.0265612 25.7295 0.0503004 25.7922 0.0825977 25.8456C0.114895 25.899 0.154976 25.9419 0.200108 25.9713C0.24524 26.0007 0.294347 26.0159 0.344038 26.016H2.85716C3.03997 26.016 3.19573 25.8276 3.22436 25.572L3.84686 19.9896C3.87522 19.734 4.03098 19.5456 4.21406 19.5456H6.49892C9.16859 19.5456 11.4348 16.7903 11.8488 13.0567C12.2661 9.29147 10.1867 6.00817 7.23936 6H2.49049ZM4.93348 10.2437H6.76158C8.26661 10.2437 8.75675 11.4999 8.60178 12.8891C8.44681 14.2812 7.68562 15.3067 6.2297 15.3067H4.36902L4.93348 10.2437ZM16.9601 11.5359C16.3255 11.5393 15.5953 11.7232 14.7756 12.2062C12.8952 13.3149 11.9922 15.6062 11.6087 17.2766C11.6087 17.2766 10.3881 22.373 13.1458 25.1729C13.1458 25.1729 15.7033 27.8685 18.5823 25.0069L18.5326 25.4538C18.5249 25.5232 18.528 25.5941 18.5415 25.6617C18.555 25.7293 18.5787 25.7919 18.6109 25.8453C18.6431 25.8987 18.6832 25.9416 18.7282 25.9711C18.7733 26.0005 18.8223 26.0158 18.872 26.016H21.2577C21.4408 26.016 21.5963 25.8276 21.6249 25.572L23.0761 12.554C23.0839 12.4845 23.081 12.4135 23.0675 12.3459C23.054 12.2782 23.0303 12.2155 22.9981 12.162C22.9658 12.1085 22.9258 12.0655 22.8807 12.036C22.8356 12.0065 22.7865 11.9912 22.7368 11.9911H20.351C20.168 11.9911 20.0122 12.1794 19.9838 12.4351L19.9058 13.1358C19.9058 13.1358 18.8641 11.5259 16.9601 11.5359ZM17.0381 15.6478C17.3121 15.6478 17.5626 15.7013 17.7875 15.8034C18.8168 16.2708 19.4005 17.6697 19.2316 19.1859C19.0233 21.0529 17.9409 22.4276 16.5527 22.4276C16.279 22.4276 16.0285 22.3745 15.8034 22.2723C14.7743 21.8049 14.187 20.4061 14.3558 18.8898C14.5641 17.0228 15.65 15.6478 17.0381 15.6478Z" fill="#003087"/>
<path d="M36.8462 6C36.6631 6 36.5076 6.188 36.479 6.44399L34.3599 25.4538C34.3522 25.5233 34.3552 25.5942 34.3687 25.6619C34.3823 25.7295 34.406 25.7922 34.4383 25.8456C34.4706 25.899 34.5107 25.9419 34.5558 25.9713C34.601 26.0007 34.6501 26.0159 34.6998 26.016H37.2129C37.3957 26.016 37.5514 25.8276 37.5801 25.572L38.2026 19.9896C38.2309 19.734 38.3867 19.5456 38.5698 19.5456H40.8546C43.5243 19.5456 45.7903 16.7903 46.204 13.0567C46.6216 9.29147 44.5424 6.00817 41.5951 6H36.8462ZM39.2892 10.2437H41.1173C42.6223 10.2437 43.1125 11.4999 42.9575 12.8891C42.8025 14.2812 42.0416 15.3067 40.5854 15.3067H38.7247L39.2892 10.2437ZM51.3156 11.5359C50.681 11.5393 49.9508 11.7232 49.131 12.2062C47.2506 13.3149 46.3476 15.6062 45.9641 17.2766C45.9641 17.2766 44.7441 22.373 47.5017 25.1729C47.5017 25.1729 50.0587 27.8685 52.938 25.0069L52.8884 25.4538C52.8807 25.5233 52.8837 25.5942 52.8972 25.6619C52.9108 25.7295 52.9345 25.7922 52.9668 25.8456C52.9991 25.899 53.0392 25.9419 53.0843 25.9713C53.1295 26.0007 53.1785 26.0159 53.2282 26.016H55.6137C55.7968 26.016 55.9523 25.8276 55.9809 25.572L57.4326 12.554C57.4404 12.4845 57.4375 12.4134 57.4239 12.3457C57.4104 12.278 57.3867 12.2152 57.3544 12.1617C57.3221 12.1082 57.282 12.0652 57.2368 12.0358C57.1916 12.0063 57.1425 11.9911 57.0927 11.9911H54.707C54.5239 11.9911 54.3682 12.1794 54.3398 12.4351L54.2618 13.1358C54.2618 13.1358 53.2196 11.5259 51.3156 11.5359ZM51.3936 15.6478C51.6675 15.6478 51.9181 15.7013 52.1429 15.8034C53.1723 16.2708 53.7559 17.6697 53.587 19.1859C53.3787 21.0529 52.2963 22.4276 50.9082 22.4276C50.6345 22.4276 50.3839 22.3745 50.1588 22.2723C49.1297 21.8049 48.5424 20.4061 48.7113 18.8898C48.9196 17.0228 50.0054 15.6478 51.3936 15.6478Z" fill="#0070E0"/>
<path d="M24.2083 11.991C24.0192 11.991 23.8847 12.2522 23.9425 12.5067L26.558 23.9877L24.1931 29.398C24.0783 29.6607 24.2117 29.9999 24.43 29.9999H27.2252C27.3051 29.9998 27.3837 29.9706 27.4533 29.915C27.5229 29.8594 27.5812 29.7794 27.6226 29.6826L34.9274 12.5892C35.0396 12.3265 34.9056 11.9907 34.6887 11.9907H31.8937C31.813 11.9908 31.7337 12.0206 31.6636 12.0772C31.5935 12.1338 31.535 12.2153 31.4939 12.3135L28.6186 19.1803L27.159 12.3644C27.1115 12.1426 26.9667 11.9907 26.8031 11.9907L24.2083 11.991Z" fill="#003087"/>
<path d="M60.1434 6C59.9606 6 59.8049 6.18837 59.7762 6.44399L57.6566 25.4531C57.6488 25.5226 57.6518 25.5936 57.6653 25.6613C57.6788 25.7291 57.7025 25.7918 57.7348 25.8453C57.7671 25.8988 57.8072 25.9418 57.8524 25.9713C57.8976 26.0007 57.9467 26.016 57.9965 26.016H60.5096C60.6924 26.016 60.8482 25.8276 60.8768 25.572L62.9959 6.56214C63.0036 6.49276 63.0006 6.42185 62.9871 6.35427C62.9736 6.2867 62.9499 6.22405 62.9176 6.17065C62.8854 6.11725 62.8454 6.07434 62.8003 6.04488C62.7552 6.01543 62.7062 6.00012 62.6566 6H60.1434Z" fill="#0070E0"/>
</g>
<defs>
<clipPath id="clip0_1_16">
<rect width="63" height="26" fill="white"/>
</clipPath>
</defs>
</svg>
