<svg width="32" height="32" viewBox="0 0 32 32" fill="none" xmlns="http://www.w3.org/2000/svg">
<path d="M19.9051 11.4202L19.9044 11.4219L19.9042 11.4224L19.9041 11.4227C19.904 11.4228 19.904 11.4229 19.904 11.4227L19.2837 12.8854L20.8716 12.8113C25.5803 12.5916 27.8084 12.8149 28.8559 13.2008C29.3301 13.3754 29.4461 13.5427 29.4884 13.6197C29.5555 13.7417 29.5917 13.9186 29.6139 14.34L29.6139 14.34L29.6142 14.3455C29.6461 14.8935 29.3414 15.1662 28.7725 15.486C28.7397 15.5044 28.6985 15.5271 28.6535 15.5517C28.5528 15.607 28.4334 15.6725 28.3484 15.7241C28.2777 15.767 28.1843 15.827 28.0933 15.9024C28.0113 15.9704 27.864 16.1049 27.7596 16.314C27.6351 16.5633 27.5919 16.8833 27.7136 17.2039C27.8168 17.4758 28.0006 17.6439 28.1123 17.7309C28.3286 17.8993 28.6063 18.0142 28.8427 18.1011C29.6161 18.3852 29.7115 18.6257 29.7217 18.6514L29.722 18.6523C29.7353 18.6853 29.7484 18.7395 29.7484 18.8552C29.7484 18.9153 29.7452 18.9803 29.7398 19.0679C29.7392 19.0773 29.7386 19.0872 29.7379 19.0975C29.7345 19.1516 29.7304 19.218 29.7276 19.2868C29.7177 19.3052 29.7013 19.3331 29.6756 19.3712C29.585 19.5058 29.4522 19.6634 29.269 19.875C29.2562 19.8898 29.243 19.905 29.2296 19.9205C29.0707 20.1037 28.876 20.3282 28.7149 20.5518C28.5527 20.7769 28.33 21.1249 28.2629 21.5398C28.1675 22.1263 28.4386 22.5555 28.6582 22.8036C28.761 22.9198 28.872 23.0196 28.954 23.0916C28.989 23.1223 29.0188 23.1481 29.0461 23.1717C29.0949 23.214 29.1357 23.2494 29.1837 23.2933C29.4081 23.4991 29.5333 23.6574 29.5254 24.0216C29.5118 24.4078 29.3289 24.6367 29.1051 24.8024C28.9867 24.89 28.8646 24.9517 28.7709 24.9909C28.7253 25.01 28.6899 25.0224 28.6697 25.029C28.663 25.0312 28.6581 25.0327 28.6553 25.0335L27.2343 25.3973L28.1049 26.5896C28.4689 27.0882 28.4228 27.4474 28.3451 27.6805C28.2991 27.8186 28.231 27.9353 28.1728 28.0179C28.1444 28.0581 28.1209 28.0866 28.1077 28.1019C28.1043 28.1058 28.1017 28.1087 28.1 28.1106L27.9988 28.2108L27.9698 28.2661C27.9608 28.2715 27.9499 28.2779 27.9368 28.285C27.8323 28.3419 27.6561 28.4132 27.3894 28.4884C26.8581 28.6381 26.109 28.7644 25.1847 28.8647C23.3453 29.0643 20.9658 29.1453 18.5897 29.1624C16.22 29.1795 13.8807 29.1329 12.1319 29.082C11.3468 29.0591 10.6817 29.0353 10.1875 29.0162V14.999C11.4423 14.7481 12.6511 14.0456 13.6983 13.0758C15.0321 11.8404 16.1773 10.1087 16.9259 8.0705C17.5991 6.24764 18.0544 4.74866 18.3424 3.70082C18.4157 3.43407 18.4782 3.19648 18.5306 2.99018C19.4675 3.24617 20.01 3.71806 20.3432 4.24607C20.8005 4.97075 20.9615 5.95759 20.9119 7.06128C20.863 8.15065 20.614 9.24199 20.3682 10.0769C20.2465 10.4905 20.1281 10.8326 20.0411 11.0691C19.9976 11.1873 19.9621 11.2786 19.9381 11.3389C19.9261 11.3691 19.917 11.3914 19.9112 11.4054L19.9051 11.4202ZM28.0048 28.2422C28.0049 28.2422 28.0038 28.2432 28.0013 28.2452C28.0035 28.2431 28.0048 28.2422 28.0048 28.2422Z" stroke="#E5E5E5" stroke-width="2"/>
<path d="M2.4375 14.6999H3.0375V14.6874H4.6125V29.3624H2.4375C2.11887 29.3624 1.85 29.0935 1.85 28.7749V15.2874C1.85 14.9688 2.11887 14.6999 2.4375 14.6999Z" stroke="#E5E5E5" stroke-width="1.2"/>
</svg>
