<svg width="22" height="22" viewBox="0 0 22 22" fill="none" xmlns="http://www.w3.org/2000/svg">
<g clip-path="url(#clip0_1_227)">
<path d="M21.3951 6.54488C20.9551 6.04988 20.3501 5.71988 19.6901 5.71988H11.2201C10.9451 5.71988 10.6701 5.93988 10.6701 6.26988C10.6701 6.59988 10.9451 6.81988 11.2201 6.81988H19.6901C20.0201 6.81988 20.3501 6.98488 20.5701 7.20488C20.7901 7.47988 20.9001 7.80988 20.7901 8.13988L20.2951 10.8899H14.2451C13.9701 10.8899 13.6951 11.1099 13.6951 11.4399C13.6951 11.7699 13.9701 11.9899 14.2451 11.9899H20.1301L19.6351 14.6299C19.5801 15.0149 19.1951 15.2899 18.8101 15.2899H8.25007C7.86507 15.2899 7.53507 15.0149 7.42507 14.6299L5.28007 2.69488C5.22507 2.41988 5.00507 2.25488 4.73007 2.25488H0.495068C0.220068 2.25488 -0.0549316 2.47488 -0.0549316 2.80488C-0.0549316 3.13488 0.220068 3.35488 0.495068 3.35488H4.29007L6.38007 14.9049C6.49007 15.6749 7.04007 16.2249 7.75507 16.4449C7.48007 16.8299 7.26007 17.3249 7.26007 17.8749C7.26007 19.2499 8.36007 20.3499 9.73507 20.3499C11.1101 20.3499 12.2101 19.2499 12.2101 17.8749C12.2101 17.3799 12.0451 16.8849 11.7701 16.4999H15.1251C14.8501 16.8849 14.6851 17.3799 14.6851 17.8749C14.6851 19.2499 15.7851 20.3499 17.1601 20.3499C18.5351 20.3499 19.6351 19.2499 19.6351 17.8749C19.6351 17.3249 19.4701 16.8299 19.1951 16.4449C19.9101 16.2799 20.5151 15.6749 20.6801 14.9049L21.8901 8.41488C22.0001 7.75488 21.8351 7.09488 21.3951 6.54488ZM11.1101 17.8199C11.1101 18.5899 10.5051 19.1949 9.73507 19.1949C8.96507 19.1949 8.36007 18.5899 8.36007 17.8199C8.36007 17.0499 8.96507 16.4449 9.73507 16.4449C10.5051 16.4449 11.1101 17.0499 11.1101 17.8199ZM17.2151 19.1949C16.4451 19.1949 15.8401 18.5899 15.8401 17.8199C15.8401 17.0499 16.4451 16.4449 17.2151 16.4449C17.9851 16.4449 18.5901 17.0499 18.5901 17.8199C18.5901 18.5899 17.9851 19.1949 17.2151 19.1949Z" fill="#E5E5E5"/>
</g>
<defs>
<clipPath id="clip0_1_227">
<rect width="22" height="22" fill="white"/>
</clipPath>
</defs>
</svg>
