<svg width="35" height="35" viewBox="0 0 35 35" fill="none" xmlns="http://www.w3.org/2000/svg">
<path d="M27.3438 5.8335C29.9614 5.8335 32.0834 7.95547 32.0834 10.5731V24.434C32.0834 27.0515 29.9614 29.1735 27.3438 29.1735H7.65633C5.03873 29.1735 2.91675 27.0515 2.91675 24.434V10.5731C2.91675 8.04574 4.8949 5.98042 7.38739 5.84099L7.65633 5.8335H27.3438ZM27.3438 8.021H7.65633L7.44702 8.02945C6.13545 8.13593 5.10425 9.23408 5.10425 10.5731V24.434C5.10425 25.8434 6.24685 26.986 7.65633 26.986H27.3438C28.7533 26.986 29.8959 25.8434 29.8959 24.434V10.5731C29.8959 9.1636 28.7533 8.021 27.3438 8.021ZM13.4934 18.2293C14.0975 18.2293 14.5872 18.719 14.5872 19.3231V20.1721C14.5872 22.0271 13.1748 22.9689 10.9395 22.9689C8.70401 22.9689 7.29175 22.0262 7.29175 20.1704V19.3231C7.29175 18.719 7.78144 18.2293 8.3855 18.2293H13.4934ZM15.7989 18.2273L17.8647 18.2293C18.4687 18.2293 18.9584 18.719 18.9584 19.3231V19.8083C18.9584 21.2134 17.8428 21.8752 16.224 21.8752C16.0547 21.8752 15.8908 21.8679 15.7332 21.8533C15.8965 21.4611 15.9984 21.0236 16.0326 20.5418L16.0455 20.1721V19.3231C16.0455 18.9308 15.957 18.5594 15.7989 18.2273ZM22.2392 18.2293H26.6147C27.2187 18.2293 27.7084 18.719 27.7084 19.3231C27.7084 19.8768 27.2969 20.3344 26.7631 20.4069L26.6147 20.4168H22.2392C21.6352 20.4168 21.1455 19.9271 21.1455 19.3231C21.1455 18.7694 21.5569 18.3117 22.0908 18.2392L22.2392 18.2293ZM10.9386 12.396C12.1473 12.396 13.1272 13.3758 13.1272 14.5845C13.1272 15.7932 12.1473 16.773 10.9386 16.773C9.72992 16.773 8.75008 15.7932 8.75008 14.5845C8.75008 13.3758 9.72992 12.396 10.9386 12.396ZM16.5813 13.1284C17.5863 13.1284 18.4009 13.9431 18.4009 14.9481C18.4009 15.953 17.5863 16.7676 16.5813 16.7676C15.5764 16.7676 14.7616 15.953 14.7616 14.9481C14.7616 13.9431 15.5764 13.1284 16.5813 13.1284ZM22.2392 13.8543H26.6147C27.2187 13.8543 27.7084 14.344 27.7084 14.9481C27.7084 15.5018 27.2969 15.9594 26.7631 16.0319L26.6147 16.0418H22.2392C21.6352 16.0418 21.1455 15.5521 21.1455 14.9481C21.1455 14.3944 21.5569 13.9367 22.0908 13.8643L22.2392 13.8543Z" fill="#E5E5E5"/>
</svg>
