<svg width="72" height="60" viewBox="0 0 72 60" fill="none" xmlns="http://www.w3.org/2000/svg">
<path d="M7.44239 24.5299C4.98212 26.8643 0.517138 27.0102 0.790502 28.9798C2.0662 30.7306 6.80454 32.0437 11.3606 35.983C20.7462 44.1534 44.5289 59.5455 44.1645 57.6488C43.8911 56.1169 12.8186 33.9404 11.0873 29.1987C10.9962 29.1257 10.9962 29.1257 10.9962 29.0528C10.9962 29.0528 10.905 28.9798 10.905 28.9069C10.905 28.9069 10.905 28.8339 10.905 28.761C10.905 28.761 10.905 28.761 10.8139 28.761C10.8139 28.761 10.8139 28.688 10.8139 28.6151C10.8139 28.6151 10.7228 28.5421 10.7228 28.4692C10.7228 28.4692 10.7228 28.3962 10.7228 28.3233C10.6317 28.3233 10.6317 28.3233 10.6317 28.3233C10.6317 28.3233 10.6317 28.2503 10.6317 28.1774C9.26484 24.6029 20.8373 12.785 23.4799 8.91873C25.3023 6.29255 29.5851 0.456605 31.043 0.0918575C36.5103 -1.36713 36.0547 14.9006 28.2181 24.2381C26.0313 26.7914 21.2929 26.7184 21.5663 28.688C22.7509 30.4388 27.5803 31.7519 32.1365 35.6912C46.8981 48.6033 75.9661 68.8831 41.8864 39.0469C36.6925 34.597 32.3187 30.3659 31.7719 28.9069C31.7719 28.8339 31.7719 28.8339 31.7719 28.761C31.6808 28.688 31.6808 28.688 31.6808 28.6151C31.6808 28.5421 31.6808 28.5421 31.5897 28.4692C31.5897 28.4692 31.5897 28.3962 31.5897 28.3233C31.4985 28.3233 31.4985 28.2503 31.4985 28.1774C31.4985 28.1774 31.4074 28.1045 31.4074 28.0315C31.4074 28.0315 31.4074 27.9586 31.4074 27.8856C30.9519 26.7914 42.6154 9.13758 44.5289 7.02204C50.4519 0.310706 59.2907 4.76062 52.3655 11.1072C50.7252 12.6391 49.2673 15.1194 50.0874 18.6939C51.6365 25.1865 42.3421 28.2503 42.3421 28.3962C43.5267 30.147 49.0851 31.8978 53.6412 35.8371C58.2883 39.9223 59.0173 43.1321 67.036 48.3844C69.7698 50.208 74.7815 52.5424 70.0431 51.667C60.0197 49.7703 53.459 43.7157 52.9122 40.287C52.1833 35.3265 43.8 32.1167 42.1599 28.761C42.1599 28.688 42.1599 28.688 42.1599 28.6151C42.0686 28.5421 42.0686 28.5421 42.0686 28.4692C42.0686 28.3962 41.9775 28.3962 41.9775 28.3233C41.9775 28.2503 41.9775 28.2503 41.9775 28.1774C41.8864 28.1774 41.8864 28.1045 41.8864 28.0315C41.8864 28.0315 41.7953 27.9586 41.7953 27.8856C41.7953 27.8856 41.7953 27.8127 41.7953 27.7397C41.2486 26.4996 57.0126 3.30163 45.8046 7.53269C41.4308 9.13758 41.7953 20.2259 38.6061 24.0922C36.4191 26.6455 31.6808 26.5725 31.9541 28.5421C33.1387 30.2929 37.9682 31.606 42.5243 35.5453C47.0803 39.5575 75.9661 69.9044 47.9005 52.1776C44.6202 50.135 37.5126 44.4452 31.4985 39.1928C26.3046 34.7429 21.9307 30.5118 21.384 29.0528C21.384 28.9798 21.384 28.9798 21.384 28.9069C21.2929 28.8339 21.2929 28.8339 21.2929 28.761C21.2929 28.761 21.2929 28.688 21.2018 28.6151C21.2018 28.6151 21.2018 28.5421 21.2018 28.4692C21.1107 28.4692 21.1107 28.3962 21.1107 28.3233C21.1107 28.3233 21.1107 28.2503 21.0196 28.1774C21.0196 28.1774 21.0196 28.1045 21.0196 28.0315C19.7438 24.8947 37.5126 6.80319 26.6691 7.97039C23.2975 8.33513 26.578 11.1802 25.3934 15.5571C24.5732 18.3292 18.8326 20.08 17.8303 24.384C17.1013 27.5938 10.905 26.8643 11.1784 28.8339C12.4541 30.5847 17.1924 31.8978 21.7485 35.8371C38.3326 50.3539 47.0803 57.2841 45.349 59.3267C41.4308 63.6307 3.15967 45.9041 2.79518 45.6123C-2.30764 41.0895 1.24611 30.8036 0.69938 29.3446C0.608259 29.3446 0.608259 29.2716 0.608259 29.1987C0.608259 29.1987 0.517138 29.1257 0.517138 29.0528C0.517138 29.0528 0.517138 28.9798 0.517138 28.9069C0.426015 28.9069 0.426015 28.8339 0.426015 28.761C0.426015 28.761 0.334893 28.688 0.334893 28.6151C0.334893 28.6151 0.334893 28.5421 0.334893 28.4692C0.243772 28.4692 0.243772 28.3962 0.243772 28.3233C-0.394081 26.7914 1.33723 24.384 3.43303 21.8308C4.61763 20.3718 5.98446 18.7669 6.9868 17.3079C10.7228 14.4629 7.44239 24.5299 7.44239 24.5299Z" fill="#EBEBEB"/>
</svg>
