<svg width="38" height="38" viewBox="0 0 38 38" fill="none" xmlns="http://www.w3.org/2000/svg">
<path d="M19.95 22.7998C21.524 22.7998 22.8 24.0758 22.8 25.6498V26.5998C22.8 30.3455 19.267 34.1998 13.3 34.1998C7.33312 34.1998 3.80005 30.3455 3.80005 26.5998V25.6498C3.80005 24.0758 5.07603 22.7998 6.65005 22.7998H19.95ZM19.95 24.6998H6.65005C6.12538 24.6998 5.70005 25.1252 5.70005 25.6498V26.5998C5.70005 29.3312 8.42115 32.2998 13.3 32.2998C18.1789 32.2998 20.9 29.3312 20.9 26.5998V25.6498C20.9 25.1252 20.4746 24.6998 19.95 24.6998ZM13.3 10.4498C16.1857 10.4498 18.525 12.7891 18.525 15.6748C18.525 18.5605 16.1857 20.8998 13.3 20.8998C10.4144 20.8998 8.07505 18.5605 8.07505 15.6748C8.07505 12.7891 10.4144 10.4498 13.3 10.4498ZM30.4 3.7998C32.4034 3.7998 34.0446 5.34998 34.1896 7.31621L34.2 7.5998V11.3998C34.2 13.4031 32.6498 15.0443 30.6837 15.1894L30.4 15.1998H27.5481L25.2719 18.2394C24.2661 19.5812 22.2234 19.0376 21.8962 17.5259L21.8626 17.3138L21.8516 17.0998L21.85 15.0763L21.7026 15.0389C20.3244 14.6238 19.2759 13.4471 19.0468 11.9979L19.0105 11.6834L19 11.3998V7.5998C19 5.59652 20.5503 3.95528 22.5164 3.81024L22.8 3.7998H30.4ZM13.3 12.3498C11.4637 12.3498 9.97505 13.8385 9.97505 15.6748C9.97505 17.5112 11.4637 18.9998 13.3 18.9998C15.1364 18.9998 16.625 17.5112 16.625 15.6748C16.625 13.8385 15.1364 12.3498 13.3 12.3498ZM30.4 5.6998H22.8C21.8257 5.6998 21.0226 6.43328 20.9128 7.37823L20.9 7.5998V11.3998C20.9 12.3742 21.6334 13.1773 22.5785 13.287L22.8 13.2998H23.7516V17.0998L26.6 13.2998H30.4C31.3744 13.2998 32.1775 12.5663 32.2873 11.6214L32.3 11.3998V7.5998C32.3 6.62541 31.5666 5.82234 30.6216 5.71259L30.4 5.6998Z" fill="#E5E5E5"/>
</svg>
