<svg width="56" height="56" viewBox="0 0 56 56" fill="none" xmlns="http://www.w3.org/2000/svg">
<circle cx="28" cy="28" r="27.5" stroke="#A47087"/>
<g clip-path="url(#clip0_1_201)">
<path d="M34.386 12.5375C34.6203 12.6534 34.8447 12.7798 35.0702 12.912C35.1528 12.9586 35.2353 13.0052 35.3204 13.0532C35.4869 13.1473 35.653 13.242 35.8187 13.3375C36.0659 13.4797 36.3149 13.6183 36.5647 13.7559C36.731 13.8477 36.8969 13.9401 37.0627 14.0326C37.56 14.3097 38.0582 14.5851 38.5565 14.8602C38.6294 14.9005 38.6294 14.9005 38.7037 14.9415C39.4485 15.3526 40.1955 15.7592 40.9441 16.1635C41.5015 16.4648 42.0561 16.7709 42.6096 17.0795C43.1068 17.3566 43.6051 17.6319 44.1034 17.9071C44.1517 17.9338 44.2001 17.9605 44.2498 17.9881C44.7663 18.2734 45.2834 18.5572 45.8032 18.8364C45.8873 18.8816 45.9714 18.9267 46.058 18.9733C46.2142 19.0571 46.3706 19.1405 46.5271 19.2236C47.7379 19.8725 47.7379 19.8725 47.9999 20.2655C48.0208 20.5076 48.0208 20.5076 48.0226 20.8095C48.0231 20.8645 48.0236 20.9195 48.0242 20.9762C48.0257 21.1582 48.026 21.3402 48.0261 21.5222C48.0266 21.6488 48.0272 21.7754 48.0277 21.902C48.0286 22.1675 48.0289 22.4329 48.0288 22.6984C48.0288 23.0382 48.031 23.3781 48.0336 23.7179C48.0354 23.9794 48.0357 24.2409 48.0356 24.5025C48.0358 24.6278 48.0365 24.753 48.0377 24.8783C48.0392 25.0537 48.0388 25.2291 48.0378 25.4045C48.0381 25.5042 48.0383 25.604 48.0385 25.7067C47.9933 26.0135 47.9036 26.1414 47.6874 26.3593C47.4373 26.4843 47.1776 26.4764 46.9061 26.4374C46.6866 26.2973 46.5538 26.2015 46.4374 25.9686C46.4281 25.8434 46.4236 25.7179 46.4213 25.5923C46.4198 25.5141 46.4182 25.4359 46.4166 25.3554C46.4147 25.2284 46.4147 25.2284 46.4127 25.0989C46.411 25.0124 46.4094 24.9259 46.4077 24.8368C46.4026 24.5598 46.398 24.2828 46.3934 24.0057C46.3901 23.8183 46.3867 23.6308 46.3832 23.4433C46.3748 22.983 46.3669 22.5227 46.3593 22.0624C46.0566 22.2289 45.7539 22.3954 45.4514 22.5621C45.349 22.6185 45.2466 22.6749 45.1441 22.7312C44.9947 22.8133 44.8454 22.8956 44.6961 22.9779C44.6466 23.0052 44.5971 23.0324 44.5461 23.0605C44.2893 23.2024 44.0338 23.3463 43.78 23.4934C43.7298 23.5224 43.6796 23.5514 43.628 23.5813C43.4892 23.6619 43.3507 23.7429 43.2122 23.824C42.9999 23.9374 42.9999 23.9374 42.8436 23.9374C42.8444 24.0166 42.8444 24.0166 42.8452 24.0974C42.8504 24.6474 42.8539 25.1974 42.8565 25.7475C42.8577 25.9527 42.8593 26.1579 42.8613 26.3631C42.8642 26.6582 42.8655 26.9534 42.8665 27.2485C42.8677 27.3401 42.8689 27.4317 42.8702 27.526C42.8704 28.3318 42.8704 28.3318 42.6093 28.703C42.4158 28.8471 42.4158 28.8471 42.1698 28.9765C42.0724 29.0285 41.9751 29.0807 41.8778 29.133C41.8219 29.1626 41.766 29.1922 41.7085 29.2228C41.4808 29.3469 41.2574 29.4774 41.0336 29.6085C40.8606 29.7087 40.6876 29.8089 40.5145 29.9091C40.4316 29.9581 40.3487 30.0072 40.2633 30.0577C39.7827 30.3324 39.417 30.4977 38.8593 30.4999C38.6243 30.4049 38.5128 30.3385 38.382 30.1224C38.3057 29.9367 38.2909 29.8021 38.2875 29.602C38.2859 29.5332 38.2844 29.4644 38.2828 29.3935C38.2814 29.2831 38.2814 29.2831 38.28 29.1705C38.2778 29.0568 38.2778 29.0568 38.2755 28.9407C38.2708 28.6987 38.2672 28.4567 38.2636 28.2147C38.2606 28.0505 38.2575 27.8864 38.2544 27.7222C38.2469 27.32 38.2403 26.9177 38.2343 26.5155C38.1888 26.5414 38.1434 26.5672 38.0966 26.5939C37.2258 27.089 36.3534 27.5811 35.4755 28.0634C35.4019 28.1041 35.3283 28.1448 35.2525 28.1867C35.1846 28.2239 35.1167 28.261 35.0467 28.2993C34.9869 28.3321 34.9272 28.3649 34.8656 28.3987C34.7186 28.4686 34.7186 28.4686 34.5624 28.4686C34.5882 32.6968 34.614 36.9249 34.6405 41.2811C36.3424 40.3709 36.3424 40.3709 38.0324 39.4405C38.4669 39.1983 38.9023 38.958 39.3378 38.7177C39.4109 38.6773 39.4109 38.6773 39.4854 38.6361C40.144 38.2725 40.8044 37.9125 41.4667 37.5556C42.0666 37.2322 42.6617 36.9018 43.2538 36.5643C44.2779 35.9807 45.3182 35.4275 46.3593 34.8749C46.3604 34.7253 46.3604 34.7253 46.3615 34.5727C46.3646 34.2021 46.3697 33.8316 46.3755 33.4611C46.3777 33.3008 46.3793 33.1405 46.3804 32.9803C46.3821 32.7496 46.3858 32.5191 46.3898 32.2885C46.3899 32.2171 46.39 32.1456 46.3901 32.072C46.3976 31.7427 46.4091 31.5611 46.586 31.2759C46.8169 31.0632 46.9784 31.0538 47.2821 31.0358C47.5235 31.0513 47.6606 31.1259 47.8436 31.2811C48.0158 31.5394 48.0204 31.6224 48.0238 31.9232C48.0251 32.0064 48.0263 32.0896 48.0276 32.1753C48.028 32.2651 48.0284 32.355 48.0289 32.4475C48.0296 32.5399 48.0303 32.6323 48.031 32.7275C48.0322 32.923 48.0328 33.1186 48.0331 33.3142C48.0341 33.6134 48.0379 33.9125 48.0419 34.2117C48.0426 34.4017 48.0432 34.5916 48.0435 34.7815C48.0451 34.871 48.0466 34.9606 48.0482 35.0528C48.0446 35.674 48.0446 35.674 47.8185 35.9788C47.7149 36.0511 47.7149 36.0511 47.6093 36.1249C47.5639 36.1566 47.5185 36.1884 47.4718 36.2211C47.4293 36.2438 47.3869 36.2666 47.3432 36.29C47.2927 36.3175 47.2422 36.345 47.1902 36.3734C47.1351 36.4026 47.0801 36.4317 47.0233 36.4618C46.8974 36.5301 46.7714 36.5985 46.6455 36.6669C46.5407 36.7234 46.5407 36.7234 46.4338 36.781C46.1323 36.9445 45.8323 37.1107 45.5322 37.2769C45.4852 37.3029 45.4382 37.3289 45.3898 37.3558C45.3421 37.3822 45.2945 37.4086 45.2454 37.4357C44.4893 37.8542 43.7313 38.2686 42.9706 38.6786C42.3707 39.0019 41.7755 39.3324 41.1835 39.6698C40.4725 40.0749 39.7535 40.4639 39.0311 40.8481C38.4089 41.1793 37.7917 41.5177 37.1796 41.8671C36.8804 42.0369 36.5809 42.2061 36.2811 42.3749C36.236 42.4003 36.1909 42.4258 36.1444 42.452C35.8505 42.6177 35.5557 42.7817 35.2598 42.944C35.1638 42.9969 35.0682 43.0503 34.9727 43.1041C34.8392 43.1794 34.7046 43.2528 34.57 43.3261C34.4931 43.3688 34.4161 43.4114 34.3369 43.4553C33.9237 43.6106 33.6073 43.6006 33.2049 43.4444C33.1189 43.397 33.0329 43.3496 32.9443 43.3008C32.897 43.2752 32.8498 43.2496 32.801 43.2232C32.6485 43.1402 32.4971 43.0554 32.3456 42.9706C32.2393 42.9123 32.133 42.8541 32.0265 42.796C31.7694 42.6553 31.5131 42.5132 31.2571 42.3704C31.0845 42.2742 30.9114 42.179 30.7382 42.0838C30.5225 41.9648 30.3073 41.845 30.0925 41.7246C29.6012 41.4493 29.1081 41.1773 28.6151 40.9052C28.5422 40.8649 28.5422 40.8649 28.4678 40.8238C27.7231 40.4128 26.9761 40.0062 26.2276 39.6019C25.6702 39.3006 25.1156 38.9945 24.5621 38.6859C24.1137 38.4361 23.6646 38.1876 23.2152 37.9395C23.1175 37.8855 23.0198 37.8315 22.9221 37.7775C22.402 37.4901 21.8811 37.2043 21.3574 36.9235C21.2719 36.8776 21.1865 36.8318 21.0984 36.7845C20.9381 36.6986 20.7777 36.6132 20.617 36.5281C19.7188 36.0471 19.7188 36.0471 19.5624 35.7343C19.5558 35.5869 19.554 35.4393 19.5548 35.2918C19.5551 35.1603 19.5551 35.1603 19.5555 35.0263C19.5565 34.8885 19.5565 34.8885 19.5575 34.7479C19.5579 34.6555 19.5582 34.563 19.5586 34.4678C19.5595 34.2389 19.5608 34.01 19.5624 33.7811C19.4348 33.7824 19.4348 33.7824 19.3045 33.7838C18.5022 33.7917 17.6999 33.7975 16.8975 33.8014C16.485 33.8034 16.0725 33.8062 15.6601 33.8106C15.2619 33.8149 14.8638 33.8172 14.4656 33.8182C14.3138 33.8189 14.162 33.8203 14.0102 33.8224C13.7973 33.8253 13.5846 33.8257 13.3717 33.8255C13.3091 33.8269 13.2465 33.8283 13.182 33.8297C12.8641 33.8268 12.6667 33.7966 12.414 33.5953C12.2186 33.3905 12.2186 33.3905 12.1591 33.1952C12.1696 32.8417 12.1795 32.6626 12.3944 32.37C12.7674 32.1072 13.1223 32.1296 13.5668 32.1316C13.6641 32.1316 13.6641 32.1316 13.7632 32.1316C13.9771 32.1317 14.191 32.1323 14.4049 32.1329C14.5534 32.133 14.7018 32.1331 14.8502 32.1332C15.2407 32.1335 15.6311 32.1343 16.0216 32.1351C16.4902 32.1361 16.9588 32.1364 17.4274 32.1369C18.139 32.1377 18.8507 32.1392 19.5624 32.1405C19.5624 30.8257 19.5624 29.5108 19.5624 28.1561C19.2173 28.1607 18.8721 28.1652 18.5166 28.1699C18.2409 28.1724 17.9653 28.1745 17.6897 28.1764C17.399 28.1784 17.1083 28.1812 16.8176 28.1856C16.5375 28.1899 16.2574 28.1922 15.9772 28.1932C15.8705 28.1939 15.7637 28.1953 15.657 28.1974C14.8219 28.2133 14.8219 28.2133 14.5668 28.0721C14.3607 27.8724 14.2575 27.676 14.2255 27.3944C14.2565 27.0713 14.3547 26.9188 14.5624 26.6718C14.8549 26.5226 15.0946 26.4964 15.4205 26.4978C15.5589 26.4978 15.5589 26.4978 15.7 26.4978C15.8483 26.499 15.8483 26.499 15.9995 26.5003C16.1521 26.5006 16.1521 26.5006 16.3078 26.5009C16.5774 26.5015 16.847 26.5031 17.1166 26.5048C17.392 26.5064 17.6675 26.5071 17.943 26.5079C18.4828 26.5095 19.0226 26.5125 19.5624 26.5155C19.5624 25.6132 19.5624 24.7108 19.5624 23.7811C19.2804 23.7832 18.9985 23.7852 18.708 23.7873C17.7772 23.7938 16.8464 23.7981 15.9156 23.8014C15.3511 23.8034 14.7867 23.8061 14.2223 23.8106C13.7303 23.8145 13.2383 23.817 12.7463 23.8179C12.4858 23.8184 12.2254 23.8198 11.9649 23.8224C11.674 23.8253 11.3832 23.8257 11.0923 23.8255C10.9629 23.8276 10.9629 23.8276 10.8309 23.8297C10.2459 23.8258 10.2459 23.8258 9.9404 23.5928C9.70768 23.265 9.70376 23.0941 9.7516 22.7026C9.79676 22.5311 9.79676 22.5311 9.98231 22.3358C10.2668 22.1733 10.475 22.1308 10.797 22.1311C10.9128 22.131 10.9128 22.131 11.031 22.1308C11.1156 22.1311 11.2003 22.1314 11.2875 22.1316C11.3766 22.1316 11.4658 22.1316 11.5577 22.1316C11.8532 22.1317 12.1487 22.1323 12.4442 22.1329C12.6488 22.133 12.8534 22.1331 13.058 22.1332C13.5419 22.1335 14.0258 22.1341 14.5097 22.1349C15.0607 22.1358 15.6116 22.1362 16.1625 22.1366C17.2958 22.1374 18.4291 22.1388 19.5624 22.1405C19.5599 22.0584 19.5599 22.0584 19.5574 21.9746C19.5509 21.7255 19.5469 21.4765 19.5429 21.2274C19.5402 21.1413 19.5376 21.0551 19.5349 20.9663C19.5272 20.3258 19.5272 20.3258 19.7065 20.0188C19.9055 19.8487 20.102 19.7286 20.3345 19.6079C20.4249 19.5603 20.5153 19.5127 20.6085 19.4637C20.7058 19.4136 20.803 19.3635 20.9003 19.3134C21.0007 19.2608 21.1011 19.2081 21.2014 19.1553C21.3512 19.0764 21.501 18.9976 21.6511 18.9191C22.0241 18.724 22.3935 18.5233 22.7606 18.3173C22.8702 18.256 22.9797 18.1948 23.0893 18.1336C23.1479 18.1008 23.2065 18.068 23.2668 18.0343C23.7012 17.7921 24.1367 17.5518 24.5722 17.3114C24.6206 17.2846 24.6691 17.2579 24.7191 17.2303C25.4709 16.8152 26.2253 16.4052 26.9811 15.9975C27.3725 15.7859 27.7613 15.5714 28.1464 15.3485C28.6499 15.0573 29.1619 14.7832 29.6747 14.5087C30.4287 14.1049 31.1768 13.6922 31.9199 13.2685C32.0555 13.1912 32.1914 13.1144 32.3275 13.038C32.4686 12.9575 32.608 12.8741 32.746 12.7884C33.3081 12.4517 33.7541 12.2884 34.386 12.5375ZM33.3496 14.3637C33.277 14.4052 33.2043 14.4467 33.1295 14.4894C33.0512 14.5344 32.973 14.5795 32.8925 14.6259C32.7299 14.7187 32.5672 14.8115 32.4045 14.9042C32.3218 14.9513 32.2392 14.9984 32.154 15.047C31.7753 15.2615 31.3942 15.4714 31.0126 15.6806C30.9451 15.7175 30.8777 15.7545 30.8082 15.7926C30.6534 15.8774 30.4985 15.9622 30.3436 16.0468C30.5422 16.2732 30.7649 16.3933 31.03 16.5329C31.1207 16.581 31.2113 16.6291 31.3048 16.6786C31.3527 16.7038 31.4006 16.7289 31.4499 16.7548C31.7011 16.8868 31.9516 17.0202 32.2022 17.1533C32.2764 17.1927 32.2764 17.1927 32.3522 17.2329C32.725 17.4308 33.0954 17.6326 33.4638 17.8388C33.5168 17.8684 33.5698 17.898 33.6244 17.9286C33.7396 17.9929 33.8548 18.0573 33.9699 18.1217C34.4044 18.3639 34.8398 18.6042 35.2753 18.8446C35.3482 18.8849 35.3482 18.8849 35.4225 18.9259C36.1673 19.337 36.9143 19.7436 37.6628 20.1479C38.052 20.3583 38.4408 20.5694 38.8272 20.7848C38.936 20.8452 39.0451 20.905 39.1545 20.9641C39.4843 21.1437 39.8038 21.334 40.1201 21.5367C41.157 22.2801 41.157 22.2801 42.3279 22.5159C42.5984 22.4061 42.8149 22.2289 43.0408 22.0468C43.4292 21.7644 43.8636 21.5534 44.2865 21.3274C44.5418 21.1901 44.795 21.0489 45.0482 20.9076C45.1352 20.8592 45.2221 20.8108 45.3117 20.761C45.4049 20.7091 45.4049 20.7091 45.4999 20.6561C45.2781 20.4729 45.0665 20.3079 44.8096 20.1779C44.725 20.1345 44.725 20.1345 44.6387 20.0901C44.5781 20.0594 44.5174 20.0286 44.455 19.997C43.886 19.7032 43.3263 19.3967 42.7704 19.079C42.0975 18.6951 41.4182 18.3245 40.7343 17.9608C39.9915 17.5658 39.2557 17.1604 38.5251 16.7432C37.8932 16.3838 37.2531 16.0406 36.6112 15.6997C35.8667 15.304 35.1306 14.8954 34.4006 14.4733C34.3314 14.4335 34.2621 14.3937 34.1907 14.3527C34.1301 14.3176 34.0696 14.2826 34.0072 14.2464C33.7315 14.1073 33.6022 14.2186 33.3496 14.3637ZM27.9462 17.3358C27.8988 17.3619 27.8514 17.388 27.8026 17.4149C27.6858 17.4792 27.5694 17.5442 27.453 17.6093C27.453 17.6608 27.453 17.7124 27.453 17.7655C27.5825 17.8324 27.5825 17.8324 27.7146 17.9007C28.4144 18.2647 29.1067 18.6391 29.7919 19.0302C30.4648 19.414 31.144 19.7846 31.828 20.1483C32.5708 20.5434 33.3066 20.9488 34.0372 21.366C34.6691 21.7253 35.3094 22.0684 35.9512 22.4096C36.822 22.873 37.6818 23.3541 38.5373 23.845C38.8331 24.032 38.8331 24.032 39.1635 24.0787C39.3766 23.9969 39.572 23.8954 39.7723 23.786C39.8484 23.745 39.9244 23.704 40.0028 23.6618C40.1959 23.5638 40.1959 23.5638 40.2655 23.3905C40.2039 23.358 40.1423 23.3254 40.0789 23.2919C38.9779 22.7093 37.8804 22.1233 36.7988 21.5051C36.2151 21.1727 35.6242 20.8544 35.0311 20.539C34.362 20.1831 33.6972 19.8211 33.0389 19.4452C32.2772 19.0102 31.5061 18.5942 30.7315 18.1825C30.1676 17.8823 29.6072 17.5773 29.0567 17.2527C28.5962 16.9861 28.3853 17.0894 27.9462 17.3358ZM25.0214 18.952C24.9564 18.9863 24.8914 19.0205 24.8245 19.0558C24.2787 19.3456 23.7385 19.6448 23.2001 19.9481C23.1229 19.9915 23.0457 20.0349 22.9661 20.0796C22.8573 20.1412 22.8573 20.1412 22.7463 20.2042C22.6821 20.2405 22.6179 20.2769 22.5518 20.3143C22.3797 20.4189 22.2212 20.5325 22.0624 20.6561C22.1213 20.6875 22.1802 20.719 22.2409 20.7513C23.3165 21.3252 24.3902 21.9017 25.4543 22.4967C25.8887 22.7389 26.3242 22.9792 26.7597 23.2196C26.8325 23.2599 26.8325 23.2599 26.9069 23.3009C27.6517 23.712 28.3987 24.1186 29.1472 24.5229C29.5914 24.763 30.0344 25.0051 30.4755 25.2509C30.5288 25.2806 30.5821 25.3103 30.637 25.3409C30.7546 25.4063 30.8721 25.4718 30.9896 25.5373C31.4077 25.7701 31.826 26.0026 32.2447 26.2345C32.347 26.2912 32.4492 26.348 32.5514 26.4049C32.6956 26.4851 32.8399 26.565 32.9843 26.6449C33.0682 26.6915 33.1522 26.7381 33.2386 26.7861C33.5406 26.9446 33.5406 26.9446 33.8593 27.0624C34.0763 26.9709 34.2557 26.8767 34.455 26.7548C34.5786 26.6825 34.7023 26.6104 34.8261 26.5384C34.8946 26.498 34.9632 26.4575 35.0339 26.4158C35.4401 26.1796 35.852 25.9537 36.2632 25.7265C36.4967 25.5974 36.7298 25.4677 36.9629 25.3381C37.1002 25.2619 37.2376 25.1856 37.3749 25.1093C37.1764 24.8828 36.9536 24.7627 36.6885 24.6231C36.5979 24.575 36.5072 24.527 36.4138 24.4774C36.3419 24.4397 36.3419 24.4397 36.2686 24.4012C36.0174 24.2692 35.7669 24.1358 35.5164 24.0027C35.4669 23.9764 35.4174 23.9502 35.3664 23.9231C34.9935 23.7252 34.6231 23.5235 34.2548 23.3173C34.2018 23.2876 34.1487 23.258 34.0941 23.2275C33.9789 23.1631 33.8638 23.0987 33.7486 23.0343C33.3142 22.7921 32.8787 22.5518 32.4432 22.3114C32.3947 22.2846 32.3461 22.2578 32.296 22.2301C31.5512 21.8191 30.8042 21.4124 30.0557 21.0082C29.5006 20.7081 28.9484 20.4033 28.3972 20.0961C27.9123 19.8259 27.4268 19.5567 26.9411 19.288C26.8366 19.2302 26.7323 19.1723 26.6279 19.1144C26.4814 19.0331 26.3347 18.9519 26.1881 18.8709C26.1025 18.8235 26.0169 18.7761 25.9288 18.7272C25.5763 18.5418 25.3484 18.7795 25.0214 18.952ZM21.1249 21.9843C21.1249 26.2382 21.1249 30.4921 21.1249 34.8749C22.5631 35.6899 22.5631 35.6899 24.0155 36.4765C24.7586 36.8709 25.4941 37.2769 26.2247 37.6941C26.8111 38.0276 27.4044 38.3472 27.9999 38.664C28.6722 39.0216 29.3403 39.3853 30.0018 39.7626C30.6678 40.1424 31.3387 40.5121 32.0136 40.8759C32.1028 40.9241 32.1921 40.9724 32.2841 41.0221C32.3663 41.0662 32.4484 41.1103 32.533 41.1557C32.6062 41.1951 32.6795 41.2344 32.7549 41.275C32.9022 41.3651 32.9022 41.3651 32.9999 41.3593C32.9999 37.1054 32.9999 32.8515 32.9999 28.4686C32.3296 28.1077 31.6593 27.7468 30.9686 27.3749C30.5676 27.153 30.1669 26.9308 29.7667 26.7074C29.3314 26.465 28.8951 26.2241 28.4589 25.9833C28.386 25.9431 28.386 25.9431 28.3117 25.902C27.5669 25.491 26.8198 25.0843 26.0714 24.68C25.5156 24.3796 24.9626 24.0744 24.4107 23.7668C23.9366 23.5026 23.4618 23.2396 22.9867 22.977C22.886 22.9213 22.7854 22.8656 22.6848 22.8098C22.5423 22.7308 22.3997 22.652 22.2571 22.5733C22.1744 22.5275 22.0917 22.4817 22.0065 22.4346C21.7158 22.2785 21.42 22.1318 21.1249 21.9843ZM39.953 25.4999C39.953 26.4022 39.953 27.3046 39.953 28.2343C40.3855 28.0613 40.794 27.8323 41.203 27.6093C41.203 26.7069 41.203 25.8046 41.203 24.8749C40.7372 24.8749 40.3641 25.2807 39.953 25.4999Z" fill="#A47087"/>
<path d="M9.35737 32.1212C9.41538 32.1196 9.47339 32.118 9.53315 32.1163C9.9137 32.1136 10.1696 32.1664 10.4999 32.3751C10.6717 32.5869 10.7284 32.7258 10.7685 32.9952C10.7253 33.2979 10.61 33.4653 10.4218 33.7032C10.112 33.8581 9.72739 33.8061 9.38667 33.8106C9.26506 33.815 9.26506 33.815 9.141 33.8195C8.46838 33.8272 8.46838 33.8272 8.18031 33.6086C7.93762 33.3154 7.93637 33.1617 7.95875 32.7953C8.02219 32.5092 8.15531 32.3846 8.39057 32.2188C8.70789 32.1187 9.02748 32.1235 9.35737 32.1212Z" fill="#A47087"/>
<path d="M12.375 26.5938C12.6063 26.7956 12.734 26.9204 12.8004 27.2188C12.8168 27.5073 12.774 27.6744 12.6191 27.9171C12.3467 28.1814 12.1378 28.1868 11.7704 28.1844C11.4902 28.1399 11.3696 27.9843 11.2031 27.7657C11.0912 27.5418 11.101 27.3897 11.125 27.1407C11.2608 26.8792 11.3668 26.7159 11.6181 26.5596C11.9047 26.4997 12.0925 26.5131 12.375 26.5938Z" fill="#A47087"/>
<path d="M47.6874 28.0001C47.9059 28.1706 47.9819 28.286 48.0289 28.5592C48.0466 28.8805 48.0269 29.0507 47.8534 29.3282C47.5977 29.5689 47.417 29.5887 47.0655 29.5855C46.8178 29.5499 46.6859 29.4256 46.5156 29.2501C46.3804 28.9797 46.3997 28.6863 46.4374 28.3907C46.749 27.875 47.1415 27.8601 47.6874 28.0001Z" fill="#A47087"/>
</g>
<defs>
<clipPath id="clip0_1_201">
<rect width="40" height="40" fill="white" transform="translate(8 8)"/>
</clipPath>
</defs>
</svg>
