<svg width="151" height="32" viewBox="0 0 151 32" fill="none" xmlns="http://www.w3.org/2000/svg">
<g clip-path="url(#clip0_1_10)">
<path d="M114.968 0.10959L122.39 26.1822L129.812 0.10959H131.248L122.39 31.2285L113.651 0.10959H114.968ZM137.593 21.4964H146.81L149.564 31.2285H151L142.261 0.10959L133.403 31.2285H134.839L137.593 21.4964ZM146.571 20.2949H137.832L142.261 5.15591L146.571 20.2949ZM39.1921 30.5076V0.10959H40.5089V29.186H49.7265V30.5076H39.1921ZM62.1762 20.2949L54.036 0.10959H55.3528L62.8945 18.3725L70.3164 0.10959H71.6332L63.493 20.2949V30.5076H62.1762V20.2949ZM77.858 6.11711C77.858 -0.491161 87.1953 -2.53371 89.1107 3.95441L87.9136 4.55516C86.2376 -0.731462 79.1748 1.5514 79.1748 6.11711C79.1748 12.9657 90.9063 11.7642 91.3851 22.2173C91.864 32.6703 77.4989 33.1509 76.5412 23.2986L77.7383 22.6979C78.0975 31.2285 90.4275 30.9882 90.0683 22.2173C89.5895 12.4851 77.858 14.6478 77.858 6.11711ZM102.039 1.43125V30.5076H100.722V1.43125H94.737V0.10959H108.025V1.43125H102.039Z" fill="#E5E5E5"/>
<path d="M3.60558 12.7442C2.48759 13.957 0.458629 14.0328 0.58285 15.0561C1.16255 15.9657 3.31573 16.6479 5.38609 18.6945C9.65104 22.9393 20.4583 30.9361 20.2927 29.9507C20.1685 29.1548 6.04861 17.6333 5.26187 15.1698C5.22047 15.1319 5.22047 15.1319 5.22047 15.094C5.22047 15.094 5.17906 15.0561 5.17906 15.0182C5.17906 15.0182 5.17906 14.9803 5.17906 14.9424C5.17906 14.9424 5.17906 14.9424 5.13765 14.9424C5.13765 14.9424 5.13765 14.9045 5.13765 14.8666C5.13765 14.8666 5.09624 14.8287 5.09624 14.7908C5.09624 14.7908 5.09624 14.7529 5.09624 14.715C5.05484 14.715 5.05484 14.715 5.05484 14.715C5.05484 14.715 5.05484 14.6771 5.05484 14.6392C4.43373 12.7821 9.69245 6.6423 10.8933 4.63361C11.7214 3.26921 13.6676 0.237223 14.3301 0.0477234C16.8145 -0.710274 16.6075 7.7414 13.0464 12.5926C12.0527 13.9191 9.89949 13.8812 10.0237 14.9045C10.562 15.8141 12.7566 16.4963 14.827 18.5429C21.5349 25.2512 34.7439 35.7873 19.2575 20.2863C16.8973 17.9744 14.9098 15.7762 14.6613 15.0182C14.6613 14.9803 14.6613 14.9803 14.6613 14.9424C14.6199 14.9045 14.6199 14.9045 14.6199 14.8666C14.6199 14.8287 14.6199 14.8287 14.5785 14.7908C14.5785 14.7908 14.5785 14.7529 14.5785 14.715C14.5371 14.715 14.5371 14.6771 14.5371 14.6392C14.5371 14.6392 14.4957 14.6013 14.4957 14.5634C14.4957 14.5634 14.4957 14.5255 14.4957 14.4876C14.2887 13.9191 19.5888 4.74731 20.4583 3.64821C23.1498 0.161423 27.1663 2.47332 24.0194 5.77061C23.274 6.5665 22.6115 7.8551 22.9842 9.71219C23.6881 13.0853 19.4646 14.6771 19.4646 14.7529C20.0029 15.6625 22.5287 16.5721 24.5991 18.6187C26.7108 20.7411 27.0421 22.4087 30.6859 25.1375C31.9282 26.0849 34.2056 27.2977 32.0524 26.8429C27.4976 25.8575 24.5163 22.7119 24.2678 20.9306C23.9366 18.3534 20.1271 16.6858 19.3818 14.9424C19.3818 14.9045 19.3818 14.9045 19.3818 14.8666C19.3403 14.8287 19.3403 14.8287 19.3403 14.7908C19.3403 14.7529 19.2989 14.7529 19.2989 14.715C19.2989 14.6771 19.2989 14.6771 19.2989 14.6392C19.2575 14.6392 19.2575 14.6013 19.2575 14.5634C19.2575 14.5634 19.2161 14.5255 19.2161 14.4876C19.2161 14.4876 19.2161 14.4497 19.2161 14.4118C18.9677 13.7675 26.1311 1.71532 21.038 3.91351C19.0505 4.74731 19.2161 10.5081 17.7669 12.5168C16.7731 13.8433 14.6199 13.8054 14.7441 14.8287C15.2824 15.7383 17.477 16.4205 19.5474 18.4671C21.6177 20.5516 34.7439 36.3179 21.9904 27.1082C20.4998 26.047 17.27 23.0909 14.5371 20.3621C12.1769 18.0502 10.1893 15.852 9.9409 15.094C9.9409 15.0561 9.9409 15.0561 9.9409 15.0182C9.89949 14.9803 9.89949 14.9803 9.89949 14.9424C9.89949 14.9424 9.89949 14.9045 9.85808 14.8666C9.85808 14.8666 9.85808 14.8287 9.85808 14.7908C9.81667 14.7908 9.81667 14.7529 9.81667 14.715C9.81667 14.715 9.81667 14.6771 9.77527 14.6392C9.77527 14.6392 9.77527 14.6013 9.77527 14.5634C9.19556 12.9337 17.27 3.53451 12.3425 4.14091C10.8104 4.33041 12.3011 5.80851 11.7628 8.0825C11.3901 9.5227 8.78149 10.4323 8.32601 12.6684C7.99475 14.336 5.17906 13.957 5.30328 14.9803C5.88298 15.8899 8.03616 16.5721 10.1065 18.6187C17.6426 26.1607 21.6177 29.7612 20.831 30.8224C19.0505 33.0585 1.65944 23.8489 1.49381 23.6973C-0.824997 21.3475 0.789887 16.0036 0.541443 15.2456C0.500036 15.2456 0.500036 15.2077 0.500036 15.1698C0.500036 15.1698 0.458629 15.1319 0.458629 15.094C0.458629 15.094 0.458629 15.0561 0.458629 15.0182C0.417221 15.0182 0.417221 14.9803 0.417221 14.9424C0.417221 14.9424 0.375814 14.9045 0.375814 14.8666C0.375814 14.8666 0.375814 14.8287 0.375814 14.7908C0.334407 14.7908 0.334407 14.7529 0.334407 14.715C0.0445558 13.9191 0.831294 12.6684 1.78366 11.3419C2.32196 10.5839 2.94307 9.7501 3.39855 8.9921C5.09624 7.514 3.60558 12.7442 3.60558 12.7442Z" fill="#E5E5E5"/>
</g>
<defs>
<clipPath id="clip0_1_10">
<rect width="151" height="32" fill="white"/>
</clipPath>
</defs>
</svg>
