<svg width="33" height="26" fill="none" xmlns="http://www.w3.org/2000/svg"><path d="M4.389 25.956v-1.324c0-.506-.318-.838-.862-.838-.273 0-.569.088-.772.376-.16-.242-.387-.376-.728-.376a.739.739 0 0 0-.634.309v-.265H.917v2.118h.476v-1.17c0-.375.203-.552.52-.552.318 0 .477.198.477.553v1.17h.476v-1.17c0-.376.227-.553.52-.553.318 0 .477.198.477.553v1.17h.526Zm7.06-2.118h-.772v-.64h-.476v.64H9.77v.42h.431v.97c0 .487.204.772.748.772.204 0 .431-.067.59-.154l-.137-.399a.778.778 0 0 1-.41.11c-.228 0-.318-.133-.318-.351v-.949h.773v-.419h.002Zm4.04-.046a.649.649 0 0 0-.568.308v-.265h-.476v2.119h.476V24.76c0-.352.159-.553.455-.553.09 0 .204.023.296.044l.138-.442c-.096-.018-.23-.018-.32-.018Zm-6.105.22c-.228-.153-.545-.22-.886-.22-.545 0-.907.265-.907.684 0 .352.272.552.748.617l.228.023c.248.043.386.11.386.22 0 .155-.183.266-.5.266a1.28 1.28 0 0 1-.727-.221l-.228.352c.249.177.59.264.931.264.635 0 1-.288 1-.683 0-.376-.296-.574-.748-.64l-.228-.024c-.204-.023-.362-.066-.362-.198 0-.154.158-.241.41-.241.272 0 .544.11.682.177l.2-.375Zm12.664-.22a.649.649 0 0 0-.569.308v-.265h-.476v2.119h.476V24.76c0-.352.159-.553.455-.553.09 0 .203.023.296.044l.137-.437c-.092-.023-.227-.023-.32-.023Zm-6.082 1.105c0 .64.454 1.103 1.158 1.103.317 0 .545-.067.772-.242l-.227-.375a.926.926 0 0 1-.569.198c-.386 0-.658-.265-.658-.684 0-.398.272-.663.658-.684.204 0 .386.067.569.198l.227-.375c-.227-.177-.455-.242-.772-.242-.704-.002-1.158.463-1.158 1.103Zm4.402 0v-1.059h-.476v.265c-.158-.198-.386-.309-.682-.309-.613 0-1.09.463-1.09 1.103 0 .64.477 1.103 1.09 1.103.317 0 .545-.11.682-.308v.264h.476v-1.059Zm-1.747 0c0-.375.248-.684.658-.684.386 0 .658.288.658.684 0 .376-.272.684-.658.684-.407-.023-.659-.311-.659-.684Zm-5.696-1.105c-.635 0-1.09.442-1.09 1.103 0 .663.455 1.102 1.113 1.102.318 0 .635-.087.886-.288l-.227-.331a1.1 1.1 0 0 1-.635.221c-.296 0-.59-.134-.658-.506h1.61v-.178c.021-.681-.388-1.123-1-1.123Zm0 .398c.296 0 .5.178.544.507h-1.134c.045-.286.248-.507.59-.507Zm11.825.707V23h-.476v1.103c-.159-.198-.386-.309-.682-.309-.614 0-1.09.463-1.09 1.103 0 .64.476 1.103 1.09 1.103.317 0 .545-.11.682-.308v.264h.476v-1.059Zm-1.748 0c0-.375.249-.684.659-.684.386 0 .658.288.658.684 0 .376-.272.684-.658.684-.41-.023-.659-.311-.659-.684Zm-15.935 0v-1.059h-.476v.265c-.158-.198-.386-.309-.682-.309-.613 0-1.09.463-1.09 1.103 0 .64.477 1.103 1.09 1.103.318 0 .545-.11.682-.308v.264h.476v-1.059Zm-1.769 0c0-.375.249-.684.659-.684.386 0 .658.288.658.684 0 .376-.272.684-.658.684-.41-.023-.659-.311-.659-.684Z" fill="#E5E5E5"/><path d="M16.296 7.704H9.35v12.52h6.946V7.704Z" fill="#FF5A00"/><path d="M9.813 13.964a7.996 7.996 0 0 1 3.02-6.26A7.878 7.878 0 0 0 7.937 6C3.55 6 0 9.562 0 13.964c0 4.402 3.55 7.964 7.937 7.964 1.852 0 3.55-.642 4.896-1.704a7.957 7.957 0 0 1-3.02-6.26Z" fill="#EB001B"/><path d="M25.667 13.964c0 4.402-3.55 7.964-7.938 7.964a7.878 7.878 0 0 1-4.896-1.704 7.93 7.93 0 0 0 3.021-6.26 7.996 7.996 0 0 0-3.02-6.26A7.865 7.865 0 0 1 17.726 6c4.39 0 7.94 3.585 7.94 7.964Z" fill="#F79E1B"/></svg>