<svg width="17" height="18" viewBox="0 0 17 18" fill="none" xmlns="http://www.w3.org/2000/svg">
<path d="M16.9235 14.3467L16.8389 14.0768C16.6385 13.4461 15.9816 12.7883 15.3782 12.615L13.1447 11.969C12.5391 11.7945 11.6751 12.0291 11.2319 12.4982L10.4236 13.3541C7.48601 12.5136 5.18246 10.0745 4.38974 6.9647L5.1981 6.10879C5.64124 5.63959 5.86277 4.726 5.698 4.0847L5.08897 1.71872C4.9242 1.07859 4.30182 0.383079 3.70729 0.173223L3.45234 0.0824603C2.85668 -0.127396 2.00717 0.0848369 1.56407 0.554004L0.354936 1.83543C0.138925 2.06294 0.000867608 2.71368 0.000867608 2.71605C-0.0414225 6.78076 1.46385 10.6969 4.17933 13.5722C6.88814 16.4403 10.5729 18.0318 14.4006 17.9976C14.4206 17.9976 15.053 17.8538 15.269 17.6262L16.4782 16.346C16.9213 15.8768 17.1217 14.9774 16.9235 14.3467Z" fill="#EBEBEB"/>
</svg>
