<svg width="24" height="24" fill="none" xmlns="http://www.w3.org/2000/svg"><path d="M11.688 1.44c-.651.004-1.305.043-1.965.123-1.26.155-2.51.413-3.71.964-1.907.876-3.26 2.364-3.652 4.525a28.46 28.46 0 0 0-.378 2.767c-.147 1.806-.056 3.618.456 5.399.404 1.403 1.147 2.664 2.45 3.482.55.346 1.277.514 1.656.69.107.05.133.08.139.087.005.006.02.019.018.13-.013 1.144 0 3.356 0 3.356l.002.476h.854l.138-.134s2.17-2.087 2.954-2.946c.142-.153.215-.24.23-.249.013-.009-.01-.014.136-.018 1.03-.02 2.057-.06 3.084-.116 1.355-.075 2.735-.204 4.064-.758 1.156-.484 2.122-1.275 2.707-2.459.597-1.214.917-2.502 1.036-3.834.198-2.217.13-4.438-.483-6.628-.361-1.283-1.086-2.369-2.197-3.135-1.33-.915-2.83-1.259-4.3-1.477a22.228 22.228 0 0 0-2.586-.238 18.92 18.92 0 0 0-.652-.007Zm.626.964c.824.022 1.648.103 2.474.226 1.416.211 2.752.532 3.897 1.32.928.64 1.507 1.503 1.818 2.603.571 2.048.644 4.146.452 6.288-.11 1.235-.404 2.4-.944 3.496-.476.968-1.22 1.582-2.217 1.999-1.159.484-2.418.612-3.744.685a87.758 87.758 0 0 1-3.053.114c-.256.006-.506.073-.683.204-.178.13-.258.252-.368.372-.56.612-1.678 1.69-2.287 2.28-.004-.713-.01-1.576 0-2.372a1.17 1.17 0 0 0-.192-.693 1.258 1.258 0 0 0-.518-.403c-.54-.25-1.246-.441-1.552-.634-1.07-.672-1.678-1.681-2.039-2.937-.472-1.642-.562-3.332-.422-5.053.075-.893.204-1.788.366-2.675.34-1.87 1.409-3.047 3.109-3.828 1.074-.493 2.221-.736 3.43-.884.824-.1 1.648-.132 2.473-.108Zm.202 2.384c-.394 0-.777.045-1.149.127a.48.48 0 0 0 .213.934 4.21 4.21 0 0 1 5.154 4.112c0 .323-.035.637-.104.94a.478.478 0 1 0 .932.209 5.172 5.172 0 0 0-5.046-6.322Zm-4.771.958a.91.91 0 0 0-.243.02c-.869.193-1.732.823-1.756 1.947.024.157.022.325.08.467.284.695.53 1.413.886 2.07 1.728 3.195 4.341 5.416 7.672 6.826.398.169.81.204 1.21.036.554-.23 1.023-.585 1.335-1.095.428-.7.433-1.186-.271-1.704-.462-.34-.916-.689-1.383-1.021-.711-.505-1.481-.593-2.012.293-.028.045-.069.082-.104.12-.273.29-.607.36-.962.214-1.347-.555-2.388-1.45-3.016-2.781-.37-.783-.269-1.175.423-1.697.069-.05.134-.104.198-.162.302-.277.383-.605.203-.977a7.647 7.647 0 0 0-1.629-2.257c-.185-.176-.396-.286-.631-.299Zm4.764.476c-.211 0-.42.017-.626.053a.48.48 0 0 0-.305.784.481.481 0 0 0 .466.157c.149-.024.306-.037.465-.037a2.794 2.794 0 0 1 2.802 2.802c0 .159-.013.316-.037.465a.48.48 0 0 0 .157.466.48.48 0 0 0 .785-.304 3.766 3.766 0 0 0-3.706-4.385Zm-.068 1.435a.481.481 0 0 0-.42.238.482.482 0 0 0 0 .482c.088.149.248.239.42.237.798 0 1.435.637 1.435 1.434a.481.481 0 0 0 .237.42c.15.087.333.087.482 0a.481.481 0 0 0 .238-.42 2.398 2.398 0 0 0-2.392-2.39Z" fill="#E5E5E5"/></svg>