<svg width="63" height="26" fill="none" xmlns="http://www.w3.org/2000/svg"><path d="M39.08 6c-4.26 0-8.067 2.272-8.067 6.469 0 4.813 6.752 5.145 6.752 7.564 0 1.018-1.134 1.93-3.071 1.93-2.75 0-4.804-1.274-4.804-1.274l-.88 4.235S31.379 26 34.52 26c4.658 0 8.323-2.383 8.323-6.652 0-5.086-6.78-5.409-6.78-7.653 0-.798.931-1.671 2.862-1.671 2.18 0 3.958.926 3.958.926l.86-4.09S41.808 6 39.08 6ZM.104 6.309 0 6.926s1.792.338 3.407 1.011c2.078.772 2.226 1.222 2.576 2.617L9.798 25.68h5.113L22.79 6.31h-5.102L12.625 19.48 10.56 8.315c-.19-1.278-1.15-2.007-2.323-2.007H.104Zm24.737 0L20.838 25.68h4.865L29.691 6.31h-4.85Zm27.133 0c-1.173 0-1.795.646-2.25 1.775l-7.128 17.597h5.102l.986-2.933h6.215l.6 2.933H60L56.073 6.31h-4.1Zm.664 5.234 1.512 7.27h-4.051l2.54-7.27h-.001Z" fill="#1434CB"/></svg>